M48
; DRILL file {KiCad (5.1.5)-3} date 01/10/2020 21:29:44
; FORMAT={2:4/ absolute / inch / suppress leading zeros}
; #@! TF.CreationDate,2020-10-01T21:29:44+02:00
; #@! TF.GenerationSoftware,Kicad,Pcbnew,(5.1.5)-3
FMAT,2
INCH,TZ
T1C0.0157
T2C0.0300
T3C0.0315
T4C0.0354
T5C0.0390
T6C0.0394
T7C0.0512
T8C0.0945
T9C0.1200
%
G90
G05
T1
X35250Y-22500
X36728Y-24500
X37451Y-27049
X38000Y-27000
X38500Y-26000
X38750Y-26250
X40000Y-36500
X41000Y-37000
X41250Y-29022
X41500Y-28250
X42000Y-32500
X44750Y-32500
X46000Y-36250
X46000Y-37300
X48000Y-33750
X50500Y-25000
X51250Y-26250
X53500Y-32000
X55250Y-29000
X55250Y-32000
X55500Y-28000
X55750Y-28500
X55750Y-29000
X56000Y-36250
X56250Y-36728
X56500Y-37250
X58000Y-36728
X58500Y-37250
X58747Y-36735
T2
X40000Y-27000
X40000Y-31000
X41000Y-27000
X41000Y-31000
X42000Y-27000
X42000Y-31000
X43000Y-27000
X43000Y-31000
X44000Y-27000
X44000Y-31000
X45000Y-27000
X45000Y-31000
X41000Y-23000
X42000Y-23000
X43000Y-23000
X44000Y-23000
T3
X52250Y-30000
X52250Y-33000
X53250Y-30000
X53250Y-33000
X54250Y-30000
X54250Y-33000
X55250Y-30000
X55250Y-33000
X56250Y-30000
X56250Y-33000
X57250Y-30000
X57250Y-33000
X58250Y-30000
X58250Y-33000
X42000Y-42500
X42000Y-46500
X40500Y-42500
X40500Y-46500
X37750Y-25000
X41750Y-25000
X50750Y-30500
X50750Y-32469
X43250Y-25000
X47250Y-25000
T4
X33000Y-58500
X34000Y-58500
X37000Y-58500
X38000Y-58500
T5
X51478Y-59000
X53250Y-59000
X46978Y-59000
X48750Y-59000
X55978Y-59000
X57750Y-59000
X42478Y-59000
X44250Y-59000
X60478Y-59000
X62250Y-59000
T6
X44500Y-34750
X44500Y-35750
X45500Y-34750
X45500Y-35750
X46500Y-34750
X46500Y-35750
X47500Y-34750
X47500Y-35750
X48500Y-34750
X48500Y-35750
X49500Y-34750
X49500Y-35750
X50500Y-34750
X50500Y-35750
X51500Y-34750
X51500Y-35750
X52500Y-34750
X52500Y-35750
X53500Y-34750
X53500Y-35750
X54500Y-34750
X54500Y-35750
X55500Y-34750
X55500Y-35750
X56500Y-34750
X56500Y-35750
X57500Y-34750
X57500Y-35750
X58500Y-34750
X58500Y-35750
X59500Y-34750
X59500Y-35750
X60500Y-34750
X60500Y-35750
X61500Y-34750
X61500Y-35750
X62500Y-34750
X62500Y-35750
X63500Y-34750
X63500Y-35750
X61750Y-31250
X64742Y-31250
X29250Y-24750
X29250Y-25750
X29250Y-26750
X29250Y-27750
T7
X59982Y-58020
X62742Y-58020
X50982Y-58020
X53742Y-58020
X46482Y-58020
X49242Y-58020
X55482Y-58020
X58242Y-58020
X41982Y-58020
X44742Y-58020
T8
X37874Y-32646
X47126Y-32646
T9
X65750Y-22750
X29750Y-58750
X29750Y-22750
X42583Y-35250
X42583Y-54541
X65417Y-35250
X65417Y-54541
X65750Y-58750
T2
G00X49297Y-26606
M15
G01X49297Y-26394
M16
G05
G00X50368Y-22563
M15
G01X50195Y-22563
M16
G05
G00X50281Y-27590
M15
G01X50281Y-27378
M16
G05
G00X52250Y-26606
M15
G01X52250Y-26394
M16
G05
G00X52336Y-28469
M15
G01X52164Y-28469
M16
G05
G00X54305Y-22563
M15
G01X54132Y-22563
M16
G05
G00X54219Y-27590
M15
G01X54219Y-27378
M16
G05
G00X55203Y-26606
M15
G01X55203Y-26394
M16
G05
G00X57297Y-26606
M15
G01X57297Y-26394
M16
G05
G00X58368Y-22563
M15
G01X58195Y-22563
M16
G05
G00X58281Y-27590
M15
G01X58281Y-27378
M16
G05
G00X60250Y-26606
M15
G01X60250Y-26394
M16
G05
G00X60336Y-28469
M15
G01X60164Y-28469
M16
G05
G00X62305Y-22563
M15
G01X62132Y-22563
M16
G05
G00X62219Y-27590
M15
G01X62219Y-27378
M16
G05
G00X63203Y-26606
M15
G01X63203Y-26394
M16
G05
T6
G00X31638Y-30356
M15
G01X31638Y-31144
M16
G05
G00X32425Y-32600
M15
G01X33213Y-32600
M16
G05
G00X34000Y-30356
M15
G01X34000Y-31144
M16
G05
T0
M30
