G04 #@! TF.GenerationSoftware,KiCad,Pcbnew,(5.1.8)-1*
G04 #@! TF.CreationDate,2021-01-12T02:12:58+01:00*
G04 #@! TF.ProjectId,C64 Pi1541-II Module,43363420-5069-4313-9534-312d4949204d,rev?*
G04 #@! TF.SameCoordinates,Original*
G04 #@! TF.FileFunction,Profile,NP*
%FSLAX46Y46*%
G04 Gerber Fmt 4.6, Leading zero omitted, Abs format (unit mm)*
G04 Created by KiCad (PCBNEW (5.1.8)-1) date 2021-01-12 02:12:58*
%MOMM*%
%LPD*%
G01*
G04 APERTURE LIST*
G04 #@! TA.AperFunction,Profile*
%ADD10C,0.150000*%
G04 #@! TD*
G04 APERTURE END LIST*
D10*
X170180000Y-72390000D02*
X170180000Y-55880000D01*
X169545000Y-78105000D02*
G75*
G02*
X170180000Y-78740000I0J-635000D01*
G01*
X170180000Y-72390000D02*
G75*
G02*
X169545000Y-73025000I-635000J0D01*
G01*
X166370000Y-73025000D02*
X166370000Y-78105000D01*
X169545000Y-73025000D02*
X166370000Y-73025000D01*
X169545000Y-78105000D02*
X166370000Y-78105000D01*
X73025000Y-73025000D02*
G75*
G02*
X72390000Y-72390000I0J635000D01*
G01*
X72390000Y-55880000D02*
X72390000Y-72390000D01*
X72390000Y-78740000D02*
G75*
G02*
X73025000Y-78105000I635000J0D01*
G01*
X76200000Y-78105000D02*
X76200000Y-73025000D01*
X73025000Y-78105000D02*
X76200000Y-78105000D01*
X73025000Y-73025000D02*
X76200000Y-73025000D01*
X81788000Y-140208000D02*
X81788000Y-87122000D01*
X72390000Y-139954000D02*
X72390000Y-151130000D01*
X104394000Y-140208000D02*
X81788000Y-140208000D01*
X104394000Y-123698000D02*
X104394000Y-140208000D01*
X100330000Y-123698000D02*
X104394000Y-123698000D01*
X100330000Y-87122000D02*
X100330000Y-123698000D01*
X81788000Y-87122000D02*
X100330000Y-87122000D01*
X72390000Y-139954000D02*
X72390000Y-78740000D01*
X168910000Y-54610000D02*
X73660000Y-54610000D01*
X73660000Y-54610000D02*
G75*
G03*
X72390000Y-55880000I0J-1270000D01*
G01*
X170180000Y-55880000D02*
G75*
G03*
X168910000Y-54610000I-1270000J0D01*
G01*
X170180000Y-151130000D02*
X170180000Y-78740000D01*
X168910000Y-152400000D02*
G75*
G03*
X170180000Y-151130000I0J1270000D01*
G01*
X73660000Y-152400000D02*
X168910000Y-152400000D01*
X72390000Y-151130000D02*
G75*
G03*
X73660000Y-152400000I1270000J0D01*
G01*
M02*
