M48
INCH,TZ
T1C0.0157
T2C0.0300
T3C0.0315
T4C0.0354
T5C0.0390
T6C0.0394
T7C0.0512
%
G90
G05
T1
X35250Y-22500
X36500Y-28000
X36728Y-24500
X37000Y-28000
X37250Y-26750
X37500Y-27000
X41550Y-29022
X42000Y-32500
X42500Y-29000
X43750Y-23750
X44750Y-32500
X46000Y-36250
X46000Y-37300
X48250Y-33750
X50500Y-25000
X51250Y-26250
X53450Y-31700
X55250Y-29000
X55250Y-31700
X55500Y-28000
X55750Y-28500
X55750Y-29000
X56000Y-36250
X56250Y-36728
X58000Y-36728
X58747Y-36735
X60750Y-32000
T2
X41000Y-23000
X42000Y-23000
X43000Y-23000
X44000Y-23000
X40000Y-27000
X40000Y-31000
X41000Y-27000
X41000Y-31000
X42000Y-27000
X42000Y-31000
X43000Y-27000
X43000Y-31000
X44000Y-27000
X44000Y-31000
X45000Y-27000
X45000Y-31000
T3
X40500Y-42500
X40500Y-46500
X42000Y-42500
X42000Y-46500
X46750Y-27000
X46750Y-31000
X50750Y-30500
X50750Y-32469
X38250Y-27000
X38250Y-31000
X52250Y-30000
X52250Y-33000
X53250Y-30000
X53250Y-33000
X54250Y-30000
X54250Y-33000
X55250Y-30000
X55250Y-33000
X56250Y-30000
X56250Y-33000
X57250Y-30000
X57250Y-33000
X58250Y-30000
X58250Y-33000
T4
X37000Y-58500
X38000Y-58500
X33000Y-58500
X34000Y-58500
T5
X42478Y-59000
X44250Y-59000
X55978Y-59000
X57750Y-59000
X51478Y-59000
X53250Y-59000
X46978Y-59000
X48750Y-59000
X60478Y-59000
X62250Y-59000
T6
X29250Y-24750
X29250Y-25750
X29250Y-26750
X29250Y-27750
X61360Y-31301
X64352Y-31301
X44500Y-34750
X44500Y-35750
X45500Y-34750
X45500Y-35750
X46500Y-34750
X46500Y-35750
X47500Y-34750
X47500Y-35750
X48500Y-34750
X48500Y-35750
X49500Y-34750
X49500Y-35750
X50500Y-34750
X50500Y-35750
X51500Y-34750
X51500Y-35750
X52500Y-34750
X52500Y-35750
X53500Y-34750
X53500Y-35750
X54500Y-34750
X54500Y-35750
X55500Y-34750
X55500Y-35750
X56500Y-34750
X56500Y-35750
X57500Y-34750
X57500Y-35750
X58500Y-34750
X58500Y-35750
X59500Y-34750
X59500Y-35750
X60500Y-34750
X60500Y-35750
X61500Y-34750
X61500Y-35750
X62500Y-34750
X62500Y-35750
X63500Y-34750
X63500Y-35750
T7
X53742Y-58020
X46482Y-58020
X49242Y-58020
X41982Y-58020
X44742Y-58020
X55482Y-58020
X58242Y-58020
X50982Y-58020
X59982Y-58020
X62742Y-58020
T2
G00X49297Y-26606
M15
G01X49297Y-26394
M16
G05
G00X50368Y-22563
M15
G01X50195Y-22563
M16
G05
G00X50281Y-27590
M15
G01X50281Y-27378
M16
G05
G00X52250Y-26606
M15
G01X52250Y-26394
M16
G05
G00X52336Y-28469
M15
G01X52164Y-28469
M16
G05
G00X54305Y-22563
M15
G01X54132Y-22563
M16
G05
G00X54219Y-27590
M15
G01X54219Y-27378
M16
G05
G00X55203Y-26606
M15
G01X55203Y-26394
M16
G05
G00X57297Y-26606
M15
G01X57297Y-26394
M16
G05
G00X58368Y-22563
M15
G01X58195Y-22563
M16
G05
G00X58281Y-27590
M15
G01X58281Y-27378
M16
G05
G00X60250Y-26606
M15
G01X60250Y-26394
M16
G05
G00X60336Y-28469
M15
G01X60164Y-28469
M16
G05
G00X62305Y-22563
M15
G01X62132Y-22563
M16
G05
G00X62219Y-27590
M15
G01X62219Y-27378
M16
G05
G00X63203Y-26606
M15
G01X63203Y-26394
M16
G05
T6
G00X31150Y-25425
M15
G01X31150Y-26213
M16
G05
G00X33394Y-24638
M15
G01X32606Y-24638
M16
G05
G00X33394Y-27000
M15
G01X32606Y-27000
M16
G05
T0
M30
