G04 #@! TF.GenerationSoftware,KiCad,Pcbnew,(5.1.5)-3*
G04 #@! TF.CreationDate,2020-10-01T21:29:28+02:00*
G04 #@! TF.ProjectId,C64 Pi1541-II Module,43363420-5069-4313-9534-312d4949204d,rev?*
G04 #@! TF.SameCoordinates,Original*
G04 #@! TF.FileFunction,Soldermask,Bot*
G04 #@! TF.FilePolarity,Negative*
%FSLAX46Y46*%
G04 Gerber Fmt 4.6, Leading zero omitted, Abs format (unit mm)*
G04 Created by KiCad (PCBNEW (5.1.5)-3) date 2020-10-01 21:29:28*
%MOMM*%
%LPD*%
G04 APERTURE LIST*
%ADD10C,2.900000*%
%ADD11C,1.924000*%
%ADD12R,1.924000X1.924000*%
%ADD13O,2.100000X2.100000*%
%ADD14R,2.100000X2.100000*%
%ADD15C,5.100000*%
%ADD16C,2.500000*%
%ADD17C,2.150000*%
%ADD18C,2.400000*%
%ADD19R,2.400000X2.400000*%
%ADD20C,2.000000*%
%ADD21R,2.200000X2.200000*%
%ADD22C,2.200000*%
%ADD23O,2.000000X2.800000*%
%ADD24R,2.000000X2.800000*%
%ADD25R,3.900000X3.900000*%
%ADD26O,1.924000X2.400000*%
%ADD27O,2.400000X1.924000*%
%ADD28O,2.000000X2.000000*%
G04 APERTURE END LIST*
D10*
X96200000Y-82920000D03*
X119700000Y-82920000D03*
D11*
X111760000Y-58420000D03*
X109220000Y-58420000D03*
X106680000Y-58420000D03*
D12*
X104140000Y-58420000D03*
D13*
X156210000Y-88265000D03*
X158750000Y-90805000D03*
X143510000Y-90805000D03*
X143510000Y-88265000D03*
X158750000Y-88265000D03*
X156210000Y-90805000D03*
X161290000Y-88265000D03*
D14*
X161290000Y-90805000D03*
D13*
X133350000Y-90805000D03*
X133350000Y-88265000D03*
X148590000Y-90805000D03*
X148590000Y-88265000D03*
X128270000Y-90805000D03*
X128270000Y-88265000D03*
X146050000Y-90805000D03*
X146050000Y-88265000D03*
X151130000Y-90805000D03*
X151130000Y-88265000D03*
X138430000Y-90805000D03*
X138430000Y-88265000D03*
X115570000Y-90805000D03*
X115570000Y-88265000D03*
X120650000Y-90805000D03*
X120650000Y-88265000D03*
X118110000Y-90805000D03*
X118110000Y-88265000D03*
X140970000Y-90805000D03*
X140970000Y-88265000D03*
X123190000Y-90805000D03*
X123190000Y-88265000D03*
X153670000Y-90805000D03*
X153670000Y-88265000D03*
X125730000Y-90805000D03*
X125730000Y-88265000D03*
X135890000Y-90805000D03*
X135890000Y-88265000D03*
X130810000Y-90805000D03*
X130810000Y-88265000D03*
X113030000Y-90805000D03*
X113030000Y-88265000D03*
D15*
X166160000Y-89535000D03*
X108160000Y-138535000D03*
X166160000Y-138535000D03*
X108160000Y-89535000D03*
X75565000Y-149225000D03*
X167005000Y-149225000D03*
X167005000Y-57785000D03*
X75565000Y-57785000D03*
D16*
X136505000Y-147370000D03*
D17*
X135255000Y-149860000D03*
X130755000Y-149860000D03*
D16*
X129495000Y-147370000D03*
X147935000Y-147370000D03*
D17*
X146685000Y-149860000D03*
X142185000Y-149860000D03*
D16*
X140925000Y-147370000D03*
X152355000Y-147370000D03*
D17*
X153615000Y-149860000D03*
X158115000Y-149860000D03*
D16*
X159365000Y-147370000D03*
X113645000Y-147370000D03*
D17*
X112395000Y-149860000D03*
X107895000Y-149860000D03*
D16*
X106635000Y-147370000D03*
X118065000Y-147370000D03*
D17*
X119325000Y-149860000D03*
X123825000Y-149860000D03*
D16*
X125075000Y-147370000D03*
D13*
X74295000Y-70485000D03*
X74295000Y-67945000D03*
X74295000Y-65405000D03*
D14*
X74295000Y-62865000D03*
D18*
X164445000Y-79375000D03*
D19*
X156845000Y-79375000D03*
D20*
X128905000Y-82470000D03*
X128905000Y-77470000D03*
D21*
X93980000Y-148590000D03*
D22*
X96520000Y-148590000D03*
X86360000Y-148590000D03*
D21*
X83820000Y-148590000D03*
D23*
X132715000Y-76200000D03*
X147955000Y-83820000D03*
X135255000Y-76200000D03*
X145415000Y-83820000D03*
X137795000Y-76200000D03*
X142875000Y-83820000D03*
X140335000Y-76200000D03*
X140335000Y-83820000D03*
X142875000Y-76200000D03*
X137795000Y-83820000D03*
X145415000Y-76200000D03*
X135255000Y-83820000D03*
X147955000Y-76200000D03*
D24*
X132715000Y-83820000D03*
D12*
X101600000Y-78740000D03*
D11*
X104140000Y-78740000D03*
X106680000Y-78740000D03*
X109220000Y-78740000D03*
X111760000Y-78740000D03*
X114300000Y-78740000D03*
X114300000Y-68580000D03*
X111760000Y-68580000D03*
X109220000Y-68580000D03*
X106680000Y-68580000D03*
X104140000Y-68580000D03*
X101600000Y-68580000D03*
D25*
X83360000Y-82805000D03*
X80360000Y-78105000D03*
X86360000Y-78105000D03*
D26*
X158035000Y-69810000D03*
X148035000Y-69810000D03*
X160535000Y-67310000D03*
X145535000Y-67310000D03*
D27*
X158035000Y-57310000D03*
X148035000Y-57310000D03*
D26*
X153035000Y-67310000D03*
D27*
X153035000Y-72310000D03*
X132715000Y-72310000D03*
D26*
X132715000Y-67310000D03*
D27*
X127715000Y-57310000D03*
X137715000Y-57310000D03*
D26*
X125215000Y-67310000D03*
X140215000Y-67310000D03*
X127715000Y-69810000D03*
X137715000Y-69810000D03*
D20*
X95885000Y-63500000D03*
D28*
X106045000Y-63500000D03*
X109855000Y-63500000D03*
D20*
X120015000Y-63500000D03*
D28*
X102870000Y-107950000D03*
D20*
X102870000Y-118110000D03*
X106680000Y-118110000D03*
D28*
X106680000Y-107950000D03*
M02*
