G04 #@! TF.GenerationSoftware,KiCad,Pcbnew,(5.1.8)-1*
G04 #@! TF.CreationDate,2021-01-12T02:12:57+01:00*
G04 #@! TF.ProjectId,C64 Pi1541-II Module,43363420-5069-4313-9534-312d4949204d,rev?*
G04 #@! TF.SameCoordinates,Original*
G04 #@! TF.FileFunction,Copper,L1,Top*
G04 #@! TF.FilePolarity,Positive*
%FSLAX46Y46*%
G04 Gerber Fmt 4.6, Leading zero omitted, Abs format (unit mm)*
G04 Created by KiCad (PCBNEW (5.1.8)-1) date 2021-01-12 02:12:58*
%MOMM*%
%LPD*%
G01*
G04 APERTURE LIST*
G04 #@! TA.AperFunction,WasherPad*
%ADD10C,2.500000*%
G04 #@! TD*
G04 #@! TA.AperFunction,ComponentPad*
%ADD11C,1.524000*%
G04 #@! TD*
G04 #@! TA.AperFunction,ComponentPad*
%ADD12R,1.524000X1.524000*%
G04 #@! TD*
G04 #@! TA.AperFunction,ComponentPad*
%ADD13C,1.600000*%
G04 #@! TD*
G04 #@! TA.AperFunction,ComponentPad*
%ADD14O,1.600000X1.600000*%
G04 #@! TD*
G04 #@! TA.AperFunction,SMDPad,CuDef*
%ADD15R,1.000000X1.000000*%
G04 #@! TD*
G04 #@! TA.AperFunction,SMDPad,CuDef*
%ADD16O,1.000000X1.000000*%
G04 #@! TD*
G04 #@! TA.AperFunction,ComponentPad*
%ADD17O,1.700000X1.700000*%
G04 #@! TD*
G04 #@! TA.AperFunction,ComponentPad*
%ADD18R,1.700000X1.700000*%
G04 #@! TD*
G04 #@! TA.AperFunction,WasherPad*
%ADD19C,3.500000*%
G04 #@! TD*
G04 #@! TA.AperFunction,ComponentPad*
%ADD20C,2.100000*%
G04 #@! TD*
G04 #@! TA.AperFunction,ComponentPad*
%ADD21C,1.750000*%
G04 #@! TD*
G04 #@! TA.AperFunction,ComponentPad*
%ADD22C,2.000000*%
G04 #@! TD*
G04 #@! TA.AperFunction,ComponentPad*
%ADD23R,2.000000X2.000000*%
G04 #@! TD*
G04 #@! TA.AperFunction,ComponentPad*
%ADD24R,1.800000X1.800000*%
G04 #@! TD*
G04 #@! TA.AperFunction,ComponentPad*
%ADD25C,1.800000*%
G04 #@! TD*
G04 #@! TA.AperFunction,ComponentPad*
%ADD26O,1.600000X2.400000*%
G04 #@! TD*
G04 #@! TA.AperFunction,ComponentPad*
%ADD27R,1.600000X2.400000*%
G04 #@! TD*
G04 #@! TA.AperFunction,ComponentPad*
%ADD28R,3.500000X3.500000*%
G04 #@! TD*
G04 #@! TA.AperFunction,ComponentPad*
%ADD29O,1.524000X2.000000*%
G04 #@! TD*
G04 #@! TA.AperFunction,ComponentPad*
%ADD30O,2.000000X1.524000*%
G04 #@! TD*
G04 #@! TA.AperFunction,ViaPad*
%ADD31C,0.600000*%
G04 #@! TD*
G04 #@! TA.AperFunction,Conductor*
%ADD32C,0.381000*%
G04 #@! TD*
G04 #@! TA.AperFunction,Conductor*
%ADD33C,0.250000*%
G04 #@! TD*
G04 APERTURE END LIST*
D10*
X96200000Y-82920000D03*
X119700000Y-82920000D03*
D11*
X111760000Y-58420000D03*
X109220000Y-58420000D03*
X106680000Y-58420000D03*
D12*
X104140000Y-58420000D03*
D13*
X97155000Y-78740000D03*
D14*
X97155000Y-68580000D03*
D15*
X90170000Y-64135000D03*
D16*
X91440000Y-64135000D03*
X92710000Y-64135000D03*
D17*
X156210000Y-88265000D03*
X158750000Y-90805000D03*
X143510000Y-90805000D03*
X143510000Y-88265000D03*
X158750000Y-88265000D03*
X156210000Y-90805000D03*
X161290000Y-88265000D03*
D18*
X161290000Y-90805000D03*
D17*
X133350000Y-90805000D03*
X133350000Y-88265000D03*
X148590000Y-90805000D03*
X148590000Y-88265000D03*
X128270000Y-90805000D03*
X128270000Y-88265000D03*
X146050000Y-90805000D03*
X146050000Y-88265000D03*
X151130000Y-90805000D03*
X151130000Y-88265000D03*
X138430000Y-90805000D03*
X138430000Y-88265000D03*
X115570000Y-90805000D03*
X115570000Y-88265000D03*
X120650000Y-90805000D03*
X120650000Y-88265000D03*
X118110000Y-90805000D03*
X118110000Y-88265000D03*
X140970000Y-90805000D03*
X140970000Y-88265000D03*
X123190000Y-90805000D03*
X123190000Y-88265000D03*
X153670000Y-90805000D03*
X153670000Y-88265000D03*
X125730000Y-90805000D03*
X125730000Y-88265000D03*
X135890000Y-90805000D03*
X135890000Y-88265000D03*
X130810000Y-90805000D03*
X130810000Y-88265000D03*
X113030000Y-90805000D03*
X113030000Y-88265000D03*
D19*
X166160000Y-89535000D03*
X108160000Y-138535000D03*
X166160000Y-138535000D03*
X108160000Y-89535000D03*
X75565000Y-149225000D03*
X167005000Y-149225000D03*
X167005000Y-57785000D03*
X75565000Y-57785000D03*
D20*
X136505000Y-147370000D03*
D21*
X135255000Y-149860000D03*
X130755000Y-149860000D03*
D20*
X129495000Y-147370000D03*
X147935000Y-147370000D03*
D21*
X146685000Y-149860000D03*
X142185000Y-149860000D03*
D20*
X140925000Y-147370000D03*
X152355000Y-147370000D03*
D21*
X153615000Y-149860000D03*
X158115000Y-149860000D03*
D20*
X159365000Y-147370000D03*
X113645000Y-147370000D03*
D21*
X112395000Y-149860000D03*
X107895000Y-149860000D03*
D20*
X106635000Y-147370000D03*
X118065000Y-147370000D03*
D21*
X119325000Y-149860000D03*
X123825000Y-149860000D03*
D20*
X125075000Y-147370000D03*
D17*
X74295000Y-70485000D03*
X74295000Y-67945000D03*
X74295000Y-65405000D03*
D18*
X74295000Y-62865000D03*
D22*
X163455000Y-79505000D03*
D23*
X155855000Y-79505000D03*
D13*
X128905000Y-82470000D03*
X128905000Y-77470000D03*
D24*
X93980000Y-148590000D03*
D25*
X96520000Y-148590000D03*
X86360000Y-148590000D03*
D24*
X83820000Y-148590000D03*
D26*
X132715000Y-76200000D03*
X147955000Y-83820000D03*
X135255000Y-76200000D03*
X145415000Y-83820000D03*
X137795000Y-76200000D03*
X142875000Y-83820000D03*
X140335000Y-76200000D03*
X140335000Y-83820000D03*
X142875000Y-76200000D03*
X137795000Y-83820000D03*
X145415000Y-76200000D03*
X135255000Y-83820000D03*
X147955000Y-76200000D03*
D27*
X132715000Y-83820000D03*
D12*
X101600000Y-78740000D03*
D11*
X104140000Y-78740000D03*
X106680000Y-78740000D03*
X109220000Y-78740000D03*
X111760000Y-78740000D03*
X114300000Y-78740000D03*
X114300000Y-68580000D03*
X111760000Y-68580000D03*
X109220000Y-68580000D03*
X106680000Y-68580000D03*
X104140000Y-68580000D03*
X101600000Y-68580000D03*
D28*
X79120000Y-65580000D03*
X83820000Y-62580000D03*
X83820000Y-68580000D03*
D29*
X158035000Y-69810000D03*
X148035000Y-69810000D03*
X160535000Y-67310000D03*
X145535000Y-67310000D03*
D30*
X158035000Y-57310000D03*
X148035000Y-57310000D03*
D29*
X153035000Y-67310000D03*
D30*
X153035000Y-72310000D03*
X132715000Y-72310000D03*
D29*
X132715000Y-67310000D03*
D30*
X127715000Y-57310000D03*
X137715000Y-57310000D03*
D29*
X125215000Y-67310000D03*
X140215000Y-67310000D03*
X127715000Y-69810000D03*
X137715000Y-69810000D03*
D14*
X118745000Y-68580000D03*
D13*
X118745000Y-78740000D03*
D14*
X102870000Y-107950000D03*
D13*
X102870000Y-118110000D03*
X106680000Y-118110000D03*
D14*
X106680000Y-107950000D03*
D16*
X92710000Y-58420000D03*
X91440000Y-58420000D03*
D15*
X90170000Y-58420000D03*
D31*
X93289490Y-62230026D03*
X89535000Y-57150014D03*
X106680000Y-82550000D03*
X142875000Y-93289490D03*
X149216261Y-93307664D03*
X154305024Y-81280000D03*
X107950000Y-73660000D03*
X105537000Y-73715510D03*
X142240000Y-92075000D03*
X147320000Y-93289490D03*
X116840000Y-92075000D03*
X116840000Y-94742000D03*
X122555000Y-85725000D03*
X113665038Y-82550000D03*
X92710000Y-71120000D03*
X94615000Y-67945000D03*
X111125000Y-60325000D03*
X93980000Y-71120000D03*
X95250000Y-68580000D03*
X141605000Y-72390012D03*
X141605000Y-73660000D03*
X140335000Y-80518000D03*
X140970000Y-71120000D03*
X140335000Y-73660000D03*
X135763000Y-80518000D03*
X128270000Y-63500000D03*
X130175000Y-66675000D03*
D32*
X92740000Y-64135000D02*
X92740000Y-62779516D01*
X92740000Y-62779516D02*
X93289490Y-62230026D01*
X89535000Y-57815000D02*
X89535000Y-57150014D01*
X90140000Y-58420000D02*
X89535000Y-57815000D01*
X103505000Y-83185000D02*
X102870000Y-83820000D01*
X106680000Y-82550000D02*
X106045000Y-83185000D01*
X106045000Y-83185000D02*
X103505000Y-83185000D01*
X102870000Y-92710000D02*
X102870000Y-107950000D01*
X102870000Y-90805000D02*
X102870000Y-92710000D01*
X102870000Y-83820000D02*
X102870000Y-90805000D01*
X160692336Y-93307664D02*
X149640525Y-93307664D01*
X161290000Y-92710000D02*
X160692336Y-93307664D01*
X149640525Y-93307664D02*
X149216261Y-93307664D01*
X161290000Y-90805000D02*
X161290000Y-92710000D01*
X142450736Y-93289490D02*
X142875000Y-93289490D01*
X102870000Y-90805000D02*
X102870000Y-92075000D01*
X104084490Y-93289490D02*
X142450736Y-93289490D01*
X102870000Y-92075000D02*
X104084490Y-93289490D01*
X74295000Y-65405000D02*
X75565000Y-65405000D01*
X75565000Y-65405000D02*
X76200000Y-64770000D01*
X76200000Y-64770000D02*
X76200000Y-63246000D01*
X88265000Y-59690000D02*
X90170000Y-61595000D01*
X79756000Y-59690000D02*
X88265000Y-59690000D01*
X76200000Y-63246000D02*
X79756000Y-59690000D01*
X90170000Y-61595000D02*
X90170000Y-64135000D01*
X92710000Y-59055000D02*
X90170000Y-61595000D01*
X92710000Y-58420000D02*
X92710000Y-59055000D01*
X106680000Y-73406000D02*
X106680000Y-78740000D01*
X105918000Y-72644000D02*
X106680000Y-73406000D01*
X92710000Y-67310000D02*
X98044000Y-72644000D01*
X90805000Y-67310000D02*
X92710000Y-67310000D01*
X90170000Y-66675000D02*
X90805000Y-67310000D01*
X98044000Y-72644000D02*
X105918000Y-72644000D01*
X90170000Y-64135000D02*
X90170000Y-66675000D01*
X130175000Y-76200000D02*
X128905000Y-77470000D01*
X132715000Y-76200000D02*
X130175000Y-76200000D01*
X128905000Y-77470000D02*
X132715000Y-81280000D01*
X132715000Y-81280000D02*
X154305024Y-81280000D01*
D33*
X118745000Y-78740000D02*
X118745000Y-77470000D01*
D32*
X92710000Y-68580000D02*
X83820000Y-68580000D01*
D33*
X97155000Y-78740000D02*
X97155000Y-74549000D01*
D32*
X105465510Y-73787000D02*
X105537000Y-73715510D01*
X97917000Y-73787000D02*
X105465510Y-73787000D01*
X118110000Y-77470000D02*
X118745000Y-77470000D01*
X114300000Y-73660000D02*
X118110000Y-77470000D01*
X107950000Y-73660000D02*
X114300000Y-73660000D01*
X107950000Y-69850000D02*
X106680000Y-68580000D01*
X107950000Y-73660000D02*
X107950000Y-69850000D01*
X128905000Y-77470000D02*
X118745000Y-77470000D01*
D33*
X97155000Y-73045000D02*
X97165000Y-73035000D01*
X97155000Y-74549000D02*
X97155000Y-73045000D01*
D32*
X97165000Y-73035000D02*
X92710000Y-68580000D01*
X97917000Y-73787000D02*
X97165000Y-73035000D01*
D33*
X97790000Y-142875000D02*
X96520000Y-144145000D01*
X111125000Y-142875000D02*
X97790000Y-142875000D01*
X112395000Y-141605000D02*
X111125000Y-142875000D01*
X107950000Y-122555000D02*
X111125000Y-122555000D01*
X111125000Y-122555000D02*
X112395000Y-123825000D01*
X96520000Y-144145000D02*
X96520000Y-148590000D01*
X106680000Y-118110000D02*
X106680000Y-121285000D01*
X106680000Y-121285000D02*
X107950000Y-122555000D01*
X112395000Y-123825000D02*
X112395000Y-141605000D01*
D32*
X106680000Y-59055000D02*
X106680000Y-58420000D01*
X91440000Y-64135000D02*
X91440000Y-62230000D01*
X93345000Y-60325000D02*
X105410000Y-60325000D01*
X91440000Y-62230000D02*
X93345000Y-60325000D01*
X105410000Y-60325000D02*
X106680000Y-59055000D01*
D33*
X110490000Y-142240000D02*
X95885000Y-142240000D01*
X102870000Y-121285000D02*
X104775000Y-123190000D01*
X102870000Y-118110000D02*
X102870000Y-121285000D01*
X111760000Y-124460000D02*
X111760000Y-140970000D01*
X111760000Y-140970000D02*
X110490000Y-142240000D01*
X104775000Y-123190000D02*
X110490000Y-123190000D01*
X110490000Y-123190000D02*
X111760000Y-124460000D01*
X86360000Y-148590000D02*
X86360000Y-143256000D01*
X87376000Y-142240000D02*
X95758000Y-142240000D01*
X86360000Y-143256000D02*
X87376000Y-142240000D01*
X95885000Y-142240000D02*
X95758000Y-142240000D01*
X135890000Y-87630000D02*
X135890000Y-88265000D01*
X116840000Y-86995000D02*
X135255000Y-86995000D01*
X116205000Y-86360000D02*
X116840000Y-86995000D01*
X104140000Y-80645000D02*
X104775000Y-81280000D01*
X104775000Y-81280000D02*
X115570000Y-81280000D01*
X135255000Y-86995000D02*
X135890000Y-87630000D01*
X104140000Y-78740000D02*
X104140000Y-80645000D01*
X115570000Y-81280000D02*
X116205000Y-81915000D01*
X116205000Y-81915000D02*
X116205000Y-86360000D01*
X125730000Y-90805000D02*
X127000000Y-92075000D01*
X127000000Y-92075000D02*
X142240000Y-92075000D01*
X147320000Y-142897436D02*
X147320000Y-93713754D01*
X147320000Y-93713754D02*
X147320000Y-93289490D01*
X153615000Y-149860000D02*
X151765000Y-149860000D01*
X151765000Y-149860000D02*
X150495000Y-148590000D01*
X150495000Y-148590000D02*
X150495000Y-144145000D01*
X150495000Y-144145000D02*
X149860000Y-143510000D01*
X147932564Y-143510000D02*
X147320000Y-142897436D01*
X149860000Y-143510000D02*
X147932564Y-143510000D01*
X153670000Y-91440000D02*
X153670000Y-90805000D01*
X146685000Y-92710000D02*
X147320000Y-92075000D01*
X153035000Y-92075000D02*
X153670000Y-91440000D01*
X147320000Y-92075000D02*
X153035000Y-92075000D01*
X146685000Y-143510000D02*
X146685000Y-92710000D01*
X142185000Y-149860000D02*
X144145000Y-149860000D01*
X144145000Y-149860000D02*
X144780000Y-149225000D01*
X144780000Y-145415000D02*
X146685000Y-143510000D01*
X144780000Y-149225000D02*
X144780000Y-145415000D01*
X140970000Y-87697919D02*
X140970000Y-88265000D01*
X136525000Y-86995000D02*
X140267081Y-86995000D01*
X117475000Y-86360000D02*
X135890000Y-86360000D01*
X135890000Y-86360000D02*
X136525000Y-86995000D01*
X116840000Y-85725000D02*
X117475000Y-86360000D01*
X114300000Y-78740000D02*
X114300000Y-79913815D01*
X116840000Y-81280000D02*
X116840000Y-85725000D01*
X140267081Y-86995000D02*
X140970000Y-87697919D01*
X114300000Y-79913815D02*
X115031185Y-80645000D01*
X115031185Y-80645000D02*
X116205000Y-80645000D01*
X116205000Y-80645000D02*
X116840000Y-81280000D01*
X116840000Y-89535000D02*
X118110000Y-88265000D01*
X116840000Y-92075000D02*
X116840000Y-89535000D01*
X107442000Y-95504000D02*
X116078000Y-95504000D01*
X116078000Y-95504000D02*
X116840000Y-94742000D01*
X106680000Y-107950000D02*
X106680000Y-96266000D01*
X106680000Y-96266000D02*
X107442000Y-95504000D01*
X132080000Y-81915000D02*
X131445000Y-81915000D01*
X131445000Y-81915000D02*
X130810000Y-82550000D01*
X130810000Y-82550000D02*
X130810000Y-85090000D01*
X130175000Y-85725000D02*
X122555000Y-85725000D01*
X130810000Y-85090000D02*
X130175000Y-85725000D01*
X155855000Y-81000000D02*
X154940000Y-81915000D01*
X155855000Y-79505000D02*
X155855000Y-81000000D01*
X132080000Y-81915000D02*
X154940000Y-81915000D01*
X115225002Y-81915000D02*
X115570000Y-82259998D01*
X102235000Y-81915000D02*
X115225002Y-81915000D01*
X101600000Y-81280000D02*
X102235000Y-81915000D01*
X115570000Y-82259998D02*
X115570000Y-87062919D01*
X101600000Y-78740000D02*
X101600000Y-81280000D01*
X115570000Y-87062919D02*
X115570000Y-88265000D01*
X113965037Y-82849999D02*
X113665038Y-82550000D01*
X114299968Y-83184930D02*
X113965037Y-82849999D01*
X115570000Y-90805000D02*
X114299968Y-89534968D01*
X114299968Y-89534968D02*
X114299968Y-83184930D01*
X138430000Y-151765000D02*
X110467564Y-151765000D01*
X139065000Y-151130000D02*
X138430000Y-151765000D01*
X146050000Y-90805000D02*
X146050000Y-142875000D01*
X145415000Y-143510000D02*
X139700000Y-143510000D01*
X139700000Y-143510000D02*
X139065000Y-144145000D01*
X146050000Y-142875000D02*
X145415000Y-143510000D01*
X139065000Y-144145000D02*
X139065000Y-151130000D01*
X107895000Y-151097436D02*
X108562564Y-151765000D01*
X107895000Y-149860000D02*
X107895000Y-151097436D01*
X108562564Y-151765000D02*
X110467564Y-151765000D01*
X147955000Y-86360000D02*
X148590000Y-86995000D01*
X148590000Y-86995000D02*
X148590000Y-88265000D01*
X137160000Y-86360000D02*
X147955000Y-86360000D01*
X136525000Y-85725000D02*
X137160000Y-86360000D01*
X133170000Y-85725000D02*
X136525000Y-85725000D01*
X132715000Y-85270000D02*
X133170000Y-85725000D01*
X132715000Y-83820000D02*
X132715000Y-85270000D01*
X137795000Y-85270000D02*
X137795000Y-83820000D01*
X149352000Y-85725000D02*
X138250000Y-85725000D01*
X149860000Y-86233000D02*
X149352000Y-85725000D01*
X138250000Y-85725000D02*
X137795000Y-85270000D01*
X149860000Y-90170000D02*
X149860000Y-86233000D01*
X149225000Y-90805000D02*
X149860000Y-90170000D01*
X148590000Y-90805000D02*
X149225000Y-90805000D01*
X109220000Y-59055000D02*
X109220000Y-58420000D01*
X109220000Y-59497630D02*
X109220000Y-58420000D01*
X109412370Y-59690000D02*
X109220000Y-59497630D01*
X109412370Y-59690000D02*
X107951410Y-59690000D01*
X107951410Y-59690000D02*
X106046410Y-61595000D01*
X161925000Y-63500000D02*
X129540000Y-63500000D01*
X129540000Y-63500000D02*
X125730000Y-59690000D01*
X162560000Y-68580000D02*
X162560000Y-64135000D01*
X160655000Y-84455000D02*
X160655000Y-70485000D01*
X154940000Y-85725000D02*
X155575000Y-85090000D01*
X160655000Y-70485000D02*
X162560000Y-68580000D01*
X155575000Y-85090000D02*
X160020000Y-85090000D01*
X155575000Y-90805000D02*
X154940000Y-90170000D01*
X125730000Y-59690000D02*
X109412370Y-59690000D01*
X162560000Y-64135000D02*
X161925000Y-63500000D01*
X160020000Y-85090000D02*
X160655000Y-84455000D01*
X154940000Y-90170000D02*
X154940000Y-85725000D01*
X156210000Y-90805000D02*
X155575000Y-90805000D01*
X74295000Y-67945000D02*
X77470000Y-71120000D01*
X92710000Y-71120000D02*
X77470000Y-71120000D01*
X105411410Y-62230000D02*
X106046410Y-61595000D01*
X94615000Y-62865000D02*
X95250000Y-62230000D01*
X95250000Y-62230000D02*
X105411410Y-62230000D01*
X94615000Y-67945000D02*
X94615000Y-62865000D01*
X133350000Y-143510000D02*
X133350000Y-149225000D01*
X133350000Y-149225000D02*
X132715000Y-149860000D01*
X133985000Y-142875000D02*
X133350000Y-143510000D01*
X143510000Y-88265000D02*
X144780000Y-89535000D01*
X144780000Y-89535000D02*
X144780000Y-92075000D01*
X132715000Y-149860000D02*
X132660000Y-149860000D01*
X144780000Y-142875000D02*
X133985000Y-142875000D01*
X144780000Y-92075000D02*
X145415000Y-92710000D01*
X145415000Y-142240000D02*
X144780000Y-142875000D01*
X145415000Y-92710000D02*
X145415000Y-142240000D01*
X130755000Y-149860000D02*
X132715000Y-149860000D01*
X143510000Y-92007081D02*
X144780000Y-93277081D01*
X144780000Y-93277081D02*
X144780000Y-141605000D01*
X143510000Y-90805000D02*
X143510000Y-92007081D01*
X144780000Y-141605000D02*
X144145000Y-142240000D01*
X144145000Y-142240000D02*
X124460000Y-142240000D01*
X124460000Y-142240000D02*
X122555000Y-142240000D01*
X122555000Y-142240000D02*
X121920000Y-142875000D01*
X121920000Y-149170000D02*
X121230000Y-149860000D01*
X121920000Y-142875000D02*
X121920000Y-149170000D01*
X119325000Y-149860000D02*
X121230000Y-149860000D01*
X75565000Y-71755000D02*
X74295000Y-70485000D01*
X93345000Y-71755000D02*
X93980000Y-71120000D01*
X93345000Y-71755000D02*
X75565000Y-71755000D01*
X108585000Y-60325000D02*
X111125000Y-60325000D01*
X95885000Y-62865000D02*
X106045000Y-62865000D01*
X95250000Y-63500000D02*
X95885000Y-62865000D01*
X106045000Y-62865000D02*
X108585000Y-60325000D01*
X95250000Y-68580000D02*
X95250000Y-63500000D01*
X157480000Y-90170000D02*
X158115000Y-90805000D01*
X157480000Y-86360000D02*
X157480000Y-90170000D01*
X158115000Y-85725000D02*
X157480000Y-86360000D01*
X161290000Y-71120000D02*
X161290000Y-85090000D01*
X163195000Y-69215000D02*
X161290000Y-71120000D01*
X163195000Y-63500000D02*
X163195000Y-69215000D01*
X160655000Y-85725000D02*
X158115000Y-85725000D01*
X162560000Y-62865000D02*
X163195000Y-63500000D01*
X158115000Y-90805000D02*
X158750000Y-90805000D01*
X130175000Y-62865000D02*
X162560000Y-62865000D01*
X125730000Y-58420000D02*
X130175000Y-62865000D01*
X161290000Y-85090000D02*
X160655000Y-85725000D01*
X111760000Y-58420000D02*
X125730000Y-58420000D01*
D32*
X94234000Y-56896000D02*
X92202000Y-56896000D01*
X92202000Y-56896000D02*
X91440000Y-57658000D01*
X95758000Y-58420000D02*
X94234000Y-56896000D01*
X91440000Y-57658000D02*
X91440000Y-58420000D01*
X104140000Y-58420000D02*
X95758000Y-58420000D01*
D33*
X137715000Y-71060000D02*
X139045012Y-72390012D01*
X141180736Y-72390012D02*
X141605000Y-72390012D01*
X139045012Y-72390012D02*
X141180736Y-72390012D01*
X137715000Y-69810000D02*
X137715000Y-71060000D01*
X157023000Y-69810000D02*
X158035000Y-69810000D01*
X153075000Y-69810000D02*
X157023000Y-69810000D01*
X141605000Y-72390012D02*
X150494988Y-72390012D01*
X150494988Y-72390012D02*
X153075000Y-69810000D01*
X141605000Y-79248000D02*
X140335000Y-80518000D01*
X141605000Y-73660000D02*
X141605000Y-79248000D01*
X118745000Y-66040000D02*
X118745000Y-68580000D01*
X130175000Y-65405000D02*
X119380000Y-65405000D01*
X130810000Y-66040000D02*
X130175000Y-65405000D01*
X130810000Y-69215000D02*
X130810000Y-66040000D01*
X119380000Y-65405000D02*
X118745000Y-66040000D01*
X131405000Y-69810000D02*
X130810000Y-69215000D01*
X137715000Y-69810000D02*
X131405000Y-69810000D01*
X111760000Y-69850000D02*
X111760000Y-68580000D01*
X112395000Y-70485000D02*
X111760000Y-69850000D01*
X118110000Y-70485000D02*
X112395000Y-70485000D01*
X118745000Y-69850000D02*
X118110000Y-70485000D01*
X118745000Y-68580000D02*
X118745000Y-69850000D01*
X140215000Y-67310000D02*
X140215000Y-66060000D01*
X140215000Y-65285000D02*
X139065000Y-64135000D01*
X140215000Y-66060000D02*
X140215000Y-65285000D01*
X140215000Y-67310000D02*
X140215000Y-69095000D01*
X140215000Y-70365000D02*
X140970000Y-71120000D01*
X140215000Y-69095000D02*
X140215000Y-70365000D01*
X160535000Y-65285000D02*
X160535000Y-67310000D01*
X139065000Y-64135000D02*
X159385000Y-64135000D01*
X159385000Y-64135000D02*
X160535000Y-65285000D01*
X139065000Y-77216000D02*
X135763000Y-80518000D01*
X139065000Y-74930000D02*
X139065000Y-77216000D01*
X140335000Y-73660000D02*
X139065000Y-74930000D01*
X139065000Y-64135000D02*
X108585000Y-64135000D01*
X104140000Y-68580000D02*
X104140000Y-64770000D01*
X104775000Y-64135000D02*
X108585000Y-64135000D01*
X104140000Y-64770000D02*
X104775000Y-64135000D01*
X104140000Y-69850000D02*
X104140000Y-68580000D01*
X97790000Y-70485000D02*
X103505000Y-70485000D01*
X97155000Y-69850000D02*
X97790000Y-70485000D01*
X103505000Y-70485000D02*
X104140000Y-69850000D01*
X97155000Y-68580000D02*
X97155000Y-69850000D01*
X137795000Y-67310000D02*
X133727000Y-67310000D01*
X153035000Y-68560000D02*
X149840000Y-71755000D01*
X153035000Y-67310000D02*
X153035000Y-68560000D01*
X149840000Y-71755000D02*
X139700000Y-71755000D01*
X133727000Y-67310000D02*
X132715000Y-67310000D01*
X139700000Y-71755000D02*
X139065000Y-71120000D01*
X139065000Y-68580000D02*
X137795000Y-67310000D01*
X139065000Y-71120000D02*
X139065000Y-68580000D01*
X114300000Y-65405000D02*
X114300000Y-68580000D01*
X114935000Y-64770000D02*
X114300000Y-65405000D01*
X132080000Y-64770000D02*
X114935000Y-64770000D01*
X132715000Y-65405000D02*
X132080000Y-64770000D01*
X132715000Y-67310000D02*
X132715000Y-65405000D01*
X130175000Y-71120000D02*
X130175000Y-66675000D01*
X132715000Y-72310000D02*
X131365000Y-72310000D01*
X131365000Y-72310000D02*
X130175000Y-71120000D01*
X152320000Y-73025000D02*
X153035000Y-72310000D01*
X134680000Y-73025000D02*
X152320000Y-73025000D01*
X132715000Y-72310000D02*
X133965000Y-72310000D01*
X133965000Y-72310000D02*
X134680000Y-73025000D01*
X101600000Y-64135000D02*
X101600000Y-68580000D01*
X102235000Y-63500000D02*
X101600000Y-64135000D01*
X128270000Y-63500000D02*
X102235000Y-63500000D01*
M02*
