G04 #@! TF.GenerationSoftware,KiCad,Pcbnew,(5.1.8)-1*
G04 #@! TF.CreationDate,2021-01-12T02:12:58+01:00*
G04 #@! TF.ProjectId,C64 Pi1541-II Module,43363420-5069-4313-9534-312d4949204d,rev?*
G04 #@! TF.SameCoordinates,Original*
G04 #@! TF.FileFunction,Soldermask,Bot*
G04 #@! TF.FilePolarity,Negative*
%FSLAX46Y46*%
G04 Gerber Fmt 4.6, Leading zero omitted, Abs format (unit mm)*
G04 Created by KiCad (PCBNEW (5.1.8)-1) date 2021-01-12 02:12:58*
%MOMM*%
%LPD*%
G01*
G04 APERTURE LIST*
%ADD10C,2.500000*%
%ADD11C,1.524000*%
%ADD12R,1.524000X1.524000*%
%ADD13C,1.600000*%
%ADD14O,1.600000X1.600000*%
%ADD15O,1.700000X1.700000*%
%ADD16R,1.700000X1.700000*%
%ADD17C,5.100000*%
%ADD18C,2.100000*%
%ADD19C,1.750000*%
%ADD20C,2.000000*%
%ADD21R,2.000000X2.000000*%
%ADD22R,1.800000X1.800000*%
%ADD23C,1.800000*%
%ADD24O,1.600000X2.400000*%
%ADD25R,1.600000X2.400000*%
%ADD26R,3.500000X3.500000*%
%ADD27O,1.524000X2.000000*%
%ADD28O,2.000000X1.524000*%
G04 APERTURE END LIST*
D10*
X96200000Y-82920000D03*
X119700000Y-82920000D03*
D11*
X111760000Y-58420000D03*
X109220000Y-58420000D03*
X106680000Y-58420000D03*
D12*
X104140000Y-58420000D03*
D13*
X97155000Y-78740000D03*
D14*
X97155000Y-68580000D03*
D15*
X156210000Y-88265000D03*
X158750000Y-90805000D03*
X143510000Y-90805000D03*
X143510000Y-88265000D03*
X158750000Y-88265000D03*
X156210000Y-90805000D03*
X161290000Y-88265000D03*
D16*
X161290000Y-90805000D03*
D15*
X133350000Y-90805000D03*
X133350000Y-88265000D03*
X148590000Y-90805000D03*
X148590000Y-88265000D03*
X128270000Y-90805000D03*
X128270000Y-88265000D03*
X146050000Y-90805000D03*
X146050000Y-88265000D03*
X151130000Y-90805000D03*
X151130000Y-88265000D03*
X138430000Y-90805000D03*
X138430000Y-88265000D03*
X115570000Y-90805000D03*
X115570000Y-88265000D03*
X120650000Y-90805000D03*
X120650000Y-88265000D03*
X118110000Y-90805000D03*
X118110000Y-88265000D03*
X140970000Y-90805000D03*
X140970000Y-88265000D03*
X123190000Y-90805000D03*
X123190000Y-88265000D03*
X153670000Y-90805000D03*
X153670000Y-88265000D03*
X125730000Y-90805000D03*
X125730000Y-88265000D03*
X135890000Y-90805000D03*
X135890000Y-88265000D03*
X130810000Y-90805000D03*
X130810000Y-88265000D03*
X113030000Y-90805000D03*
X113030000Y-88265000D03*
D17*
X166160000Y-89535000D03*
X108160000Y-138535000D03*
X166160000Y-138535000D03*
X108160000Y-89535000D03*
X75565000Y-149225000D03*
X167005000Y-149225000D03*
X167005000Y-57785000D03*
X75565000Y-57785000D03*
D18*
X136505000Y-147370000D03*
D19*
X135255000Y-149860000D03*
X130755000Y-149860000D03*
D18*
X129495000Y-147370000D03*
X147935000Y-147370000D03*
D19*
X146685000Y-149860000D03*
X142185000Y-149860000D03*
D18*
X140925000Y-147370000D03*
X152355000Y-147370000D03*
D19*
X153615000Y-149860000D03*
X158115000Y-149860000D03*
D18*
X159365000Y-147370000D03*
X113645000Y-147370000D03*
D19*
X112395000Y-149860000D03*
X107895000Y-149860000D03*
D18*
X106635000Y-147370000D03*
X118065000Y-147370000D03*
D19*
X119325000Y-149860000D03*
X123825000Y-149860000D03*
D18*
X125075000Y-147370000D03*
D15*
X74295000Y-70485000D03*
X74295000Y-67945000D03*
X74295000Y-65405000D03*
D16*
X74295000Y-62865000D03*
D20*
X163455000Y-79505000D03*
D21*
X155855000Y-79505000D03*
D13*
X128905000Y-82470000D03*
X128905000Y-77470000D03*
D22*
X93980000Y-148590000D03*
D23*
X96520000Y-148590000D03*
X86360000Y-148590000D03*
D22*
X83820000Y-148590000D03*
D24*
X132715000Y-76200000D03*
X147955000Y-83820000D03*
X135255000Y-76200000D03*
X145415000Y-83820000D03*
X137795000Y-76200000D03*
X142875000Y-83820000D03*
X140335000Y-76200000D03*
X140335000Y-83820000D03*
X142875000Y-76200000D03*
X137795000Y-83820000D03*
X145415000Y-76200000D03*
X135255000Y-83820000D03*
X147955000Y-76200000D03*
D25*
X132715000Y-83820000D03*
D12*
X101600000Y-78740000D03*
D11*
X104140000Y-78740000D03*
X106680000Y-78740000D03*
X109220000Y-78740000D03*
X111760000Y-78740000D03*
X114300000Y-78740000D03*
X114300000Y-68580000D03*
X111760000Y-68580000D03*
X109220000Y-68580000D03*
X106680000Y-68580000D03*
X104140000Y-68580000D03*
X101600000Y-68580000D03*
D26*
X79120000Y-65580000D03*
X83820000Y-62580000D03*
X83820000Y-68580000D03*
D27*
X158035000Y-69810000D03*
X148035000Y-69810000D03*
X160535000Y-67310000D03*
X145535000Y-67310000D03*
D28*
X158035000Y-57310000D03*
X148035000Y-57310000D03*
D27*
X153035000Y-67310000D03*
D28*
X153035000Y-72310000D03*
X132715000Y-72310000D03*
D27*
X132715000Y-67310000D03*
D28*
X127715000Y-57310000D03*
X137715000Y-57310000D03*
D27*
X125215000Y-67310000D03*
X140215000Y-67310000D03*
X127715000Y-69810000D03*
X137715000Y-69810000D03*
D14*
X118745000Y-68580000D03*
D13*
X118745000Y-78740000D03*
D14*
X102870000Y-107950000D03*
D13*
X102870000Y-118110000D03*
X106680000Y-118110000D03*
D14*
X106680000Y-107950000D03*
M02*
