G04 #@! TF.GenerationSoftware,KiCad,Pcbnew,(5.1.5)-3*
G04 #@! TF.CreationDate,2020-06-19T22:59:50+02:00*
G04 #@! TF.ProjectId,C64 Pi1541-II Faceplate,43363420-5069-4313-9534-312d49492046,rev?*
G04 #@! TF.SameCoordinates,Original*
G04 #@! TF.FileFunction,Copper,L2,Bot*
G04 #@! TF.FilePolarity,Positive*
%FSLAX46Y46*%
G04 Gerber Fmt 4.6, Leading zero omitted, Abs format (unit mm)*
G04 Created by KiCad (PCBNEW (5.1.5)-3) date 2020-06-19 22:59:50*
%MOMM*%
%LPD*%
G04 APERTURE LIST*
%ADD10C,1.524000*%
%ADD11R,1.524000X1.524000*%
%ADD12C,2.500000*%
%ADD13O,1.700000X1.700000*%
%ADD14R,1.700000X1.700000*%
%ADD15O,1.000000X1.000000*%
%ADD16R,1.000000X1.000000*%
%ADD17C,0.600000*%
%ADD18C,0.381000*%
%ADD19C,0.250000*%
%ADD20C,0.254000*%
G04 APERTURE END LIST*
D10*
X111760000Y-58420000D03*
X109220000Y-58420000D03*
X106680000Y-58420000D03*
D11*
X104140000Y-58420000D03*
D12*
X96200000Y-82920000D03*
X119700000Y-82920000D03*
D13*
X74295000Y-70485000D03*
X74295000Y-67945000D03*
X74295000Y-65405000D03*
D14*
X74295000Y-62865000D03*
D15*
X90805000Y-66040000D03*
X90805000Y-64770000D03*
D16*
X90805000Y-63500000D03*
X90805000Y-69850000D03*
D15*
X90805000Y-71120000D03*
X90805000Y-72390000D03*
D17*
X90170000Y-67945000D03*
X93980000Y-67310000D03*
X89535000Y-68580000D03*
X94615000Y-67945000D03*
D18*
X90805000Y-66040000D02*
X91304999Y-66539999D01*
X91304999Y-69350001D02*
X90805000Y-69850000D01*
X91304999Y-66539999D02*
X91304999Y-69350001D01*
X74930000Y-66040000D02*
X74295000Y-65405000D01*
X90805000Y-66040000D02*
X74930000Y-66040000D01*
X106045000Y-59690000D02*
X106680000Y-59055000D01*
X93980000Y-59690000D02*
X106045000Y-59690000D01*
X93345000Y-60325000D02*
X93980000Y-59690000D01*
X92075000Y-71120000D02*
X92710000Y-70485000D01*
X90805000Y-71120000D02*
X92075000Y-71120000D01*
X106680000Y-59055000D02*
X106680000Y-58420000D01*
X92710000Y-70485000D02*
X92710000Y-66040000D01*
X92710000Y-66040000D02*
X93345000Y-65405000D01*
X93345000Y-65405000D02*
X93345000Y-60325000D01*
D19*
X93980000Y-61595000D02*
X93980000Y-67310000D01*
X109220000Y-58420000D02*
X107315000Y-60325000D01*
X95250000Y-60325000D02*
X93980000Y-61595000D01*
X107315000Y-60325000D02*
X95250000Y-60325000D01*
X83820000Y-67945000D02*
X74295000Y-67945000D01*
X90170000Y-67945000D02*
X83820000Y-67945000D01*
X89535000Y-68580000D02*
X85725000Y-68580000D01*
X94615000Y-67310000D02*
X94615000Y-67945000D01*
X94615000Y-62230000D02*
X94615000Y-67310000D01*
X95885000Y-60960000D02*
X94615000Y-62230000D01*
X111760000Y-58420000D02*
X109220000Y-60960000D01*
X109220000Y-60960000D02*
X95885000Y-60960000D01*
X76200000Y-68580000D02*
X74295000Y-70485000D01*
X85725000Y-68580000D02*
X76200000Y-68580000D01*
D18*
X93345000Y-58420000D02*
X104140000Y-58420000D01*
X92710000Y-59055000D02*
X93345000Y-58420000D01*
X90805000Y-64770000D02*
X92075000Y-64770000D01*
X92710000Y-64135000D02*
X92710000Y-59055000D01*
X92075000Y-64770000D02*
X92710000Y-64135000D01*
D20*
G36*
X121210000Y-56480122D02*
G01*
X121206565Y-56515000D01*
X121220273Y-56654184D01*
X121260872Y-56788020D01*
X121326800Y-56911363D01*
X121415525Y-57019475D01*
X121475260Y-57068498D01*
X121523637Y-57108200D01*
X121646980Y-57174128D01*
X121780816Y-57214727D01*
X121920000Y-57228435D01*
X121954877Y-57225000D01*
X123750000Y-57225000D01*
X123750001Y-69180113D01*
X123746565Y-69215000D01*
X123760273Y-69354184D01*
X123800872Y-69488020D01*
X123866800Y-69611363D01*
X123955525Y-69719475D01*
X124063637Y-69808200D01*
X124186980Y-69874128D01*
X124320816Y-69914727D01*
X124425123Y-69925000D01*
X124460000Y-69928435D01*
X124494877Y-69925000D01*
X140935123Y-69925000D01*
X140970000Y-69928435D01*
X141004877Y-69925000D01*
X141109184Y-69914727D01*
X141243020Y-69874128D01*
X141366363Y-69808200D01*
X141474475Y-69719475D01*
X141563200Y-69611363D01*
X141629128Y-69488020D01*
X141669727Y-69354184D01*
X141683435Y-69215000D01*
X141680000Y-69180123D01*
X141680000Y-57225000D01*
X144070000Y-57225000D01*
X144070001Y-69180113D01*
X144066565Y-69215000D01*
X144080273Y-69354184D01*
X144120872Y-69488020D01*
X144186800Y-69611363D01*
X144275525Y-69719475D01*
X144383637Y-69808200D01*
X144506980Y-69874128D01*
X144640816Y-69914727D01*
X144745123Y-69925000D01*
X144780000Y-69928435D01*
X144814877Y-69925000D01*
X161255123Y-69925000D01*
X161290000Y-69928435D01*
X161324877Y-69925000D01*
X161429184Y-69914727D01*
X161563020Y-69874128D01*
X161686363Y-69808200D01*
X161794475Y-69719475D01*
X161883200Y-69611363D01*
X161949128Y-69488020D01*
X161989727Y-69354184D01*
X162003435Y-69215000D01*
X162000000Y-69180123D01*
X162000000Y-57587032D01*
X164995000Y-57587032D01*
X164995000Y-57982968D01*
X165072243Y-58371296D01*
X165223761Y-58737092D01*
X165443731Y-59066301D01*
X165723699Y-59346269D01*
X166052908Y-59566239D01*
X166418704Y-59717757D01*
X166807032Y-59795000D01*
X167202968Y-59795000D01*
X167591296Y-59717757D01*
X167957092Y-59566239D01*
X168286301Y-59346269D01*
X168566269Y-59066301D01*
X168786239Y-58737092D01*
X168937757Y-58371296D01*
X169015000Y-57982968D01*
X169015000Y-57587032D01*
X168937757Y-57198704D01*
X168786239Y-56832908D01*
X168566269Y-56503699D01*
X168286301Y-56223731D01*
X167957092Y-56003761D01*
X167591296Y-55852243D01*
X167202968Y-55775000D01*
X166807032Y-55775000D01*
X166418704Y-55852243D01*
X166052908Y-56003761D01*
X165723699Y-56223731D01*
X165443731Y-56503699D01*
X165223761Y-56832908D01*
X165072243Y-57198704D01*
X164995000Y-57587032D01*
X162000000Y-57587032D01*
X162000000Y-57225000D01*
X163795123Y-57225000D01*
X163830000Y-57228435D01*
X163864877Y-57225000D01*
X163969184Y-57214727D01*
X164103020Y-57174128D01*
X164226363Y-57108200D01*
X164334475Y-57019475D01*
X164423200Y-56911363D01*
X164489128Y-56788020D01*
X164529727Y-56654184D01*
X164543435Y-56515000D01*
X164540000Y-56480123D01*
X164540000Y-55320000D01*
X168875280Y-55320000D01*
X169018109Y-55334005D01*
X169122101Y-55365402D01*
X169218014Y-55416399D01*
X169302194Y-55485055D01*
X169371440Y-55568758D01*
X169423105Y-55664311D01*
X169455227Y-55768078D01*
X169470000Y-55908641D01*
X169470001Y-72315000D01*
X166404877Y-72315000D01*
X166370000Y-72311565D01*
X166335123Y-72315000D01*
X166230816Y-72325273D01*
X166096980Y-72365872D01*
X165973637Y-72431800D01*
X165865525Y-72520525D01*
X165776800Y-72628637D01*
X165710872Y-72751980D01*
X165670273Y-72885816D01*
X165656565Y-73025000D01*
X165660001Y-73059887D01*
X165660000Y-78070123D01*
X165656565Y-78105000D01*
X165670273Y-78244184D01*
X165710872Y-78378020D01*
X165776800Y-78501363D01*
X165865525Y-78609475D01*
X165969788Y-78695041D01*
X165973637Y-78698200D01*
X166096980Y-78764128D01*
X166230816Y-78804727D01*
X166370000Y-78818435D01*
X166404877Y-78815000D01*
X169470001Y-78815000D01*
X169470000Y-151095280D01*
X169455995Y-151238109D01*
X169424599Y-151342099D01*
X169373601Y-151438013D01*
X169304941Y-151522199D01*
X169221243Y-151591439D01*
X169125689Y-151643105D01*
X169021922Y-151675227D01*
X168881359Y-151690000D01*
X133219374Y-151690000D01*
X133195009Y-151653877D01*
X133159769Y-151600025D01*
X133153504Y-151592342D01*
X133074508Y-151496853D01*
X133028875Y-151451537D01*
X132983824Y-151405532D01*
X132976191Y-151399219D01*
X132976185Y-151399213D01*
X132976178Y-151399209D01*
X132880147Y-151320886D01*
X132826579Y-151285296D01*
X132773450Y-151248917D01*
X132764729Y-151244203D01*
X132655306Y-151186021D01*
X132595826Y-151161505D01*
X132536663Y-151136148D01*
X132527193Y-151133216D01*
X132408552Y-151097396D01*
X132345458Y-151084903D01*
X132282479Y-151071517D01*
X132272620Y-151070481D01*
X132149281Y-151058388D01*
X132118303Y-151058388D01*
X132087511Y-151055040D01*
X132077598Y-151055004D01*
X132073165Y-151055019D01*
X132042272Y-151058154D01*
X132011213Y-151057937D01*
X132001347Y-151058905D01*
X131878096Y-151071860D01*
X131815074Y-151084797D01*
X131751854Y-151096857D01*
X131742364Y-151099722D01*
X131623976Y-151136369D01*
X131564660Y-151161303D01*
X131504988Y-151185412D01*
X131496236Y-151190066D01*
X131387221Y-151249010D01*
X131333877Y-151284991D01*
X131280025Y-151320231D01*
X131272342Y-151326496D01*
X131176853Y-151405492D01*
X131131537Y-151451125D01*
X131085532Y-151496176D01*
X131079219Y-151503809D01*
X131079213Y-151503815D01*
X131079209Y-151503822D01*
X131000886Y-151599853D01*
X130965296Y-151653421D01*
X130940249Y-151690000D01*
X111629374Y-151690000D01*
X111605009Y-151653877D01*
X111569769Y-151600025D01*
X111563504Y-151592342D01*
X111484508Y-151496853D01*
X111438875Y-151451537D01*
X111393824Y-151405532D01*
X111386191Y-151399219D01*
X111386185Y-151399213D01*
X111386178Y-151399209D01*
X111290147Y-151320886D01*
X111236579Y-151285296D01*
X111183450Y-151248917D01*
X111174729Y-151244203D01*
X111065306Y-151186021D01*
X111005826Y-151161505D01*
X110946663Y-151136148D01*
X110937193Y-151133216D01*
X110818552Y-151097396D01*
X110755458Y-151084903D01*
X110692479Y-151071517D01*
X110682620Y-151070481D01*
X110559281Y-151058388D01*
X110528303Y-151058388D01*
X110497511Y-151055040D01*
X110487598Y-151055004D01*
X110483165Y-151055019D01*
X110452272Y-151058154D01*
X110421213Y-151057937D01*
X110411347Y-151058905D01*
X110288096Y-151071860D01*
X110225074Y-151084797D01*
X110161854Y-151096857D01*
X110152364Y-151099722D01*
X110033976Y-151136369D01*
X109974660Y-151161303D01*
X109914988Y-151185412D01*
X109906236Y-151190066D01*
X109797221Y-151249010D01*
X109743877Y-151284991D01*
X109690025Y-151320231D01*
X109682342Y-151326496D01*
X109586853Y-151405492D01*
X109541537Y-151451125D01*
X109495532Y-151496176D01*
X109489219Y-151503809D01*
X109489213Y-151503815D01*
X109489209Y-151503822D01*
X109410886Y-151599853D01*
X109375296Y-151653421D01*
X109350249Y-151690000D01*
X96269714Y-151690000D01*
X96791467Y-151473883D01*
X97324466Y-151117744D01*
X97777744Y-150664466D01*
X98133883Y-150131467D01*
X98379195Y-149539231D01*
X98481077Y-149027032D01*
X164995000Y-149027032D01*
X164995000Y-149422968D01*
X165072243Y-149811296D01*
X165223761Y-150177092D01*
X165443731Y-150506301D01*
X165723699Y-150786269D01*
X166052908Y-151006239D01*
X166418704Y-151157757D01*
X166807032Y-151235000D01*
X167202968Y-151235000D01*
X167591296Y-151157757D01*
X167957092Y-151006239D01*
X168286301Y-150786269D01*
X168566269Y-150506301D01*
X168786239Y-150177092D01*
X168937757Y-149811296D01*
X169015000Y-149422968D01*
X169015000Y-149027032D01*
X168937757Y-148638704D01*
X168786239Y-148272908D01*
X168566269Y-147943699D01*
X168286301Y-147663731D01*
X167957092Y-147443761D01*
X167591296Y-147292243D01*
X167202968Y-147215000D01*
X166807032Y-147215000D01*
X166418704Y-147292243D01*
X166052908Y-147443761D01*
X165723699Y-147663731D01*
X165443731Y-147943699D01*
X165223761Y-148272908D01*
X165072243Y-148638704D01*
X164995000Y-149027032D01*
X98481077Y-149027032D01*
X98504254Y-148910516D01*
X98504254Y-148269484D01*
X98379195Y-147640769D01*
X98133883Y-147048533D01*
X97777744Y-146515534D01*
X97324466Y-146062256D01*
X96791467Y-145706117D01*
X96199231Y-145460805D01*
X95570516Y-145335746D01*
X94929484Y-145335746D01*
X94300769Y-145460805D01*
X93708533Y-145706117D01*
X93175534Y-146062256D01*
X92722256Y-146515534D01*
X92366117Y-147048533D01*
X92120805Y-147640769D01*
X91995746Y-148269484D01*
X91995746Y-148910516D01*
X92120805Y-149539231D01*
X92366117Y-150131467D01*
X92722256Y-150664466D01*
X93175534Y-151117744D01*
X93708533Y-151473883D01*
X94230286Y-151690000D01*
X86109714Y-151690000D01*
X86631467Y-151473883D01*
X87164466Y-151117744D01*
X87617744Y-150664466D01*
X87973883Y-150131467D01*
X88219195Y-149539231D01*
X88344254Y-148910516D01*
X88344254Y-148269484D01*
X88219195Y-147640769D01*
X87973883Y-147048533D01*
X87617744Y-146515534D01*
X87164466Y-146062256D01*
X86631467Y-145706117D01*
X86039231Y-145460805D01*
X85410516Y-145335746D01*
X84769484Y-145335746D01*
X84140769Y-145460805D01*
X83548533Y-145706117D01*
X83015534Y-146062256D01*
X82562256Y-146515534D01*
X82206117Y-147048533D01*
X81960805Y-147640769D01*
X81835746Y-148269484D01*
X81835746Y-148910516D01*
X81960805Y-149539231D01*
X82206117Y-150131467D01*
X82562256Y-150664466D01*
X83015534Y-151117744D01*
X83548533Y-151473883D01*
X84070286Y-151690000D01*
X73694720Y-151690000D01*
X73551891Y-151675995D01*
X73447901Y-151644599D01*
X73351987Y-151593601D01*
X73267801Y-151524941D01*
X73198561Y-151441243D01*
X73146895Y-151345689D01*
X73114773Y-151241922D01*
X73100000Y-151101359D01*
X73100000Y-149027032D01*
X73555000Y-149027032D01*
X73555000Y-149422968D01*
X73632243Y-149811296D01*
X73783761Y-150177092D01*
X74003731Y-150506301D01*
X74283699Y-150786269D01*
X74612908Y-151006239D01*
X74978704Y-151157757D01*
X75367032Y-151235000D01*
X75762968Y-151235000D01*
X76151296Y-151157757D01*
X76517092Y-151006239D01*
X76846301Y-150786269D01*
X77126269Y-150506301D01*
X77346239Y-150177092D01*
X77497757Y-149811296D01*
X77575000Y-149422968D01*
X77575000Y-149027032D01*
X77497757Y-148638704D01*
X77346239Y-148272908D01*
X77126269Y-147943699D01*
X76846301Y-147663731D01*
X76517092Y-147443761D01*
X76151296Y-147292243D01*
X75762968Y-147215000D01*
X75367032Y-147215000D01*
X74978704Y-147292243D01*
X74612908Y-147443761D01*
X74283699Y-147663731D01*
X74003731Y-147943699D01*
X73783761Y-148272908D01*
X73632243Y-148638704D01*
X73555000Y-149027032D01*
X73100000Y-149027032D01*
X73100000Y-103505000D01*
X112300000Y-103505000D01*
X112387441Y-104755470D01*
X112648064Y-105981602D01*
X113076794Y-107159529D01*
X113665288Y-108266325D01*
X114402091Y-109280447D01*
X115272862Y-110182156D01*
X116260652Y-110953903D01*
X117346235Y-111580665D01*
X118508482Y-112050243D01*
X119724771Y-112353498D01*
X120971428Y-112484527D01*
X122224188Y-112440779D01*
X123458668Y-112223107D01*
X124650840Y-111835747D01*
X125777500Y-111286238D01*
X126816718Y-110585277D01*
X127748268Y-109746505D01*
X128554018Y-108786250D01*
X129218284Y-107723202D01*
X129728138Y-106578051D01*
X130073656Y-105373087D01*
X130248113Y-104131762D01*
X130248113Y-102878238D01*
X130073656Y-101636913D01*
X129728138Y-100431949D01*
X129218284Y-99286798D01*
X128554018Y-98223750D01*
X127748268Y-97263495D01*
X126816718Y-96424723D01*
X125777500Y-95723762D01*
X124650840Y-95174253D01*
X123458668Y-94786893D01*
X122224188Y-94569221D01*
X120971428Y-94525473D01*
X119724771Y-94656502D01*
X118508482Y-94959757D01*
X117346235Y-95429335D01*
X116260652Y-96056097D01*
X115272862Y-96827844D01*
X114402091Y-97729553D01*
X113665288Y-98743675D01*
X113076794Y-99850471D01*
X112648064Y-101028398D01*
X112387441Y-102254530D01*
X112300000Y-103505000D01*
X73100000Y-103505000D01*
X73100000Y-82734344D01*
X94315000Y-82734344D01*
X94315000Y-83105656D01*
X94387439Y-83469834D01*
X94529534Y-83812882D01*
X94735825Y-84121618D01*
X94998382Y-84384175D01*
X95307118Y-84590466D01*
X95650166Y-84732561D01*
X96014344Y-84805000D01*
X96385656Y-84805000D01*
X96749834Y-84732561D01*
X97092882Y-84590466D01*
X97401618Y-84384175D01*
X97664175Y-84121618D01*
X97870466Y-83812882D01*
X98012561Y-83469834D01*
X98085000Y-83105656D01*
X98085000Y-82734344D01*
X117815000Y-82734344D01*
X117815000Y-83105656D01*
X117887439Y-83469834D01*
X118029534Y-83812882D01*
X118235825Y-84121618D01*
X118498382Y-84384175D01*
X118807118Y-84590466D01*
X119150166Y-84732561D01*
X119514344Y-84805000D01*
X119885656Y-84805000D01*
X120249834Y-84732561D01*
X120592882Y-84590466D01*
X120901618Y-84384175D01*
X121164175Y-84121618D01*
X121370466Y-83812882D01*
X121512561Y-83469834D01*
X121585000Y-83105656D01*
X121585000Y-82734344D01*
X121512561Y-82370166D01*
X121370466Y-82027118D01*
X121164175Y-81718382D01*
X120901618Y-81455825D01*
X120592882Y-81249534D01*
X120249834Y-81107439D01*
X119885656Y-81035000D01*
X119514344Y-81035000D01*
X119150166Y-81107439D01*
X118807118Y-81249534D01*
X118498382Y-81455825D01*
X118235825Y-81718382D01*
X118029534Y-82027118D01*
X117887439Y-82370166D01*
X117815000Y-82734344D01*
X98085000Y-82734344D01*
X98012561Y-82370166D01*
X97870466Y-82027118D01*
X97664175Y-81718382D01*
X97401618Y-81455825D01*
X97092882Y-81249534D01*
X96749834Y-81107439D01*
X96385656Y-81035000D01*
X96014344Y-81035000D01*
X95650166Y-81107439D01*
X95307118Y-81249534D01*
X94998382Y-81455825D01*
X94735825Y-81718382D01*
X94529534Y-82027118D01*
X94387439Y-82370166D01*
X94315000Y-82734344D01*
X73100000Y-82734344D01*
X73100000Y-78815000D01*
X76165123Y-78815000D01*
X76200000Y-78818435D01*
X76234877Y-78815000D01*
X76339184Y-78804727D01*
X76473020Y-78764128D01*
X76596363Y-78698200D01*
X76704475Y-78609475D01*
X76793200Y-78501363D01*
X76859128Y-78378020D01*
X76899727Y-78244184D01*
X76913435Y-78105000D01*
X76910000Y-78070123D01*
X76910000Y-73059877D01*
X76913435Y-73025000D01*
X76899727Y-72885816D01*
X76859128Y-72751980D01*
X76827001Y-72691874D01*
X89710881Y-72691874D01*
X89727554Y-72746864D01*
X89817877Y-72950206D01*
X89946135Y-73132020D01*
X90107399Y-73285318D01*
X90295471Y-73404210D01*
X90503124Y-73484126D01*
X90678000Y-73359129D01*
X90678000Y-72517000D01*
X90932000Y-72517000D01*
X90932000Y-73359129D01*
X91106876Y-73484126D01*
X91314529Y-73404210D01*
X91502601Y-73285318D01*
X91663865Y-73132020D01*
X91792123Y-72950206D01*
X91882446Y-72746864D01*
X91899119Y-72691874D01*
X91772954Y-72517000D01*
X90932000Y-72517000D01*
X90678000Y-72517000D01*
X89837046Y-72517000D01*
X89710881Y-72691874D01*
X76827001Y-72691874D01*
X76793200Y-72628637D01*
X76704475Y-72520525D01*
X76596363Y-72431800D01*
X76473020Y-72365872D01*
X76339184Y-72325273D01*
X76234877Y-72315000D01*
X76200000Y-72311565D01*
X76165123Y-72315000D01*
X73100000Y-72315000D01*
X73100000Y-71369485D01*
X73141525Y-71431632D01*
X73348368Y-71638475D01*
X73591589Y-71800990D01*
X73861842Y-71912932D01*
X74148740Y-71970000D01*
X74441260Y-71970000D01*
X74728158Y-71912932D01*
X74998411Y-71800990D01*
X75241632Y-71638475D01*
X75448475Y-71431632D01*
X75610990Y-71188411D01*
X75722932Y-70918158D01*
X75780000Y-70631260D01*
X75780000Y-70338740D01*
X75736209Y-70118592D01*
X76514802Y-69340000D01*
X88989465Y-69340000D01*
X89092111Y-69408586D01*
X89262271Y-69479068D01*
X89442911Y-69515000D01*
X89627089Y-69515000D01*
X89666928Y-69507075D01*
X89666928Y-70350000D01*
X89679188Y-70474482D01*
X89715498Y-70594180D01*
X89759888Y-70677226D01*
X89713617Y-70788933D01*
X89670000Y-71008212D01*
X89670000Y-71231788D01*
X89713617Y-71451067D01*
X89799176Y-71657624D01*
X89867353Y-71759658D01*
X89817877Y-71829794D01*
X89727554Y-72033136D01*
X89710881Y-72088126D01*
X89837046Y-72263000D01*
X90678000Y-72263000D01*
X90678000Y-72251974D01*
X90693212Y-72255000D01*
X90916788Y-72255000D01*
X90932000Y-72251974D01*
X90932000Y-72263000D01*
X91772954Y-72263000D01*
X91899119Y-72088126D01*
X91882446Y-72033136D01*
X91843519Y-71945500D01*
X92034450Y-71945500D01*
X92075000Y-71949494D01*
X92115550Y-71945500D01*
X92115553Y-71945500D01*
X92236826Y-71933556D01*
X92392434Y-71886353D01*
X92535842Y-71809699D01*
X92661541Y-71706541D01*
X92687397Y-71675035D01*
X93265045Y-71097388D01*
X93296541Y-71071541D01*
X93322389Y-71040045D01*
X93322392Y-71040042D01*
X93399699Y-70945843D01*
X93476353Y-70802434D01*
X93483994Y-70777246D01*
X93523556Y-70646826D01*
X93535500Y-70525553D01*
X93535500Y-70525551D01*
X93539494Y-70485000D01*
X93535500Y-70444450D01*
X93535500Y-68137510D01*
X93537111Y-68138586D01*
X93707271Y-68209068D01*
X93714495Y-68210505D01*
X93715932Y-68217729D01*
X93786414Y-68387889D01*
X93888738Y-68541028D01*
X94018972Y-68671262D01*
X94172111Y-68773586D01*
X94342271Y-68844068D01*
X94522911Y-68880000D01*
X94540001Y-68880000D01*
X94540000Y-78070123D01*
X94536565Y-78105000D01*
X94550273Y-78244184D01*
X94590872Y-78378020D01*
X94656800Y-78501363D01*
X94745525Y-78609475D01*
X94849788Y-78695041D01*
X94853637Y-78698200D01*
X94976980Y-78764128D01*
X95110816Y-78804727D01*
X95250000Y-78818435D01*
X95284877Y-78815000D01*
X120615123Y-78815000D01*
X120650000Y-78818435D01*
X120684877Y-78815000D01*
X120789184Y-78804727D01*
X120923020Y-78764128D01*
X121046363Y-78698200D01*
X121154475Y-78609475D01*
X121243200Y-78501363D01*
X121309128Y-78378020D01*
X121349727Y-78244184D01*
X121363435Y-78105000D01*
X121360000Y-78070123D01*
X121360000Y-62264877D01*
X121363435Y-62230000D01*
X121349727Y-62090816D01*
X121309128Y-61956980D01*
X121243200Y-61833637D01*
X121154475Y-61725525D01*
X121046363Y-61636800D01*
X120923020Y-61570872D01*
X120789184Y-61530273D01*
X120684877Y-61520000D01*
X120650000Y-61516565D01*
X120615123Y-61520000D01*
X109735632Y-61520000D01*
X109760001Y-61500001D01*
X109783804Y-61470997D01*
X111468430Y-59786372D01*
X111622408Y-59817000D01*
X111897592Y-59817000D01*
X112167490Y-59763314D01*
X112421727Y-59658005D01*
X112650535Y-59505120D01*
X112845120Y-59310535D01*
X112998005Y-59081727D01*
X113103314Y-58827490D01*
X113157000Y-58557592D01*
X113157000Y-58282408D01*
X113103314Y-58012510D01*
X112998005Y-57758273D01*
X112845120Y-57529465D01*
X112650535Y-57334880D01*
X112421727Y-57181995D01*
X112167490Y-57076686D01*
X111897592Y-57023000D01*
X111622408Y-57023000D01*
X111352510Y-57076686D01*
X111098273Y-57181995D01*
X110869465Y-57334880D01*
X110674880Y-57529465D01*
X110521995Y-57758273D01*
X110490000Y-57835515D01*
X110458005Y-57758273D01*
X110305120Y-57529465D01*
X110110535Y-57334880D01*
X109881727Y-57181995D01*
X109627490Y-57076686D01*
X109357592Y-57023000D01*
X109082408Y-57023000D01*
X108812510Y-57076686D01*
X108558273Y-57181995D01*
X108329465Y-57334880D01*
X108134880Y-57529465D01*
X107981995Y-57758273D01*
X107950000Y-57835515D01*
X107918005Y-57758273D01*
X107765120Y-57529465D01*
X107570535Y-57334880D01*
X107341727Y-57181995D01*
X107087490Y-57076686D01*
X106817592Y-57023000D01*
X106542408Y-57023000D01*
X106272510Y-57076686D01*
X106018273Y-57181995D01*
X105789465Y-57334880D01*
X105594880Y-57529465D01*
X105536080Y-57617465D01*
X105527812Y-57533518D01*
X105491502Y-57413820D01*
X105432537Y-57303506D01*
X105353185Y-57206815D01*
X105256494Y-57127463D01*
X105146180Y-57068498D01*
X105026482Y-57032188D01*
X104902000Y-57019928D01*
X103378000Y-57019928D01*
X103253518Y-57032188D01*
X103133820Y-57068498D01*
X103023506Y-57127463D01*
X102926815Y-57206815D01*
X102847463Y-57303506D01*
X102788498Y-57413820D01*
X102752188Y-57533518D01*
X102746182Y-57594500D01*
X93385550Y-57594500D01*
X93345000Y-57590506D01*
X93304449Y-57594500D01*
X93304447Y-57594500D01*
X93183174Y-57606444D01*
X93027566Y-57653647D01*
X92884157Y-57730301D01*
X92789958Y-57807608D01*
X92789955Y-57807611D01*
X92758459Y-57833459D01*
X92732610Y-57864956D01*
X92154961Y-58442607D01*
X92123460Y-58468459D01*
X92097609Y-58499959D01*
X92020301Y-58594158D01*
X91943647Y-58737567D01*
X91896445Y-58893174D01*
X91880506Y-59055000D01*
X91884501Y-59095560D01*
X91884500Y-62737108D01*
X91835537Y-62645506D01*
X91756185Y-62548815D01*
X91659494Y-62469463D01*
X91549180Y-62410498D01*
X91429482Y-62374188D01*
X91305000Y-62361928D01*
X91090750Y-62365000D01*
X90932000Y-62523750D01*
X90932000Y-63373000D01*
X90952000Y-63373000D01*
X90952000Y-63627000D01*
X90932000Y-63627000D01*
X90932000Y-63638026D01*
X90916788Y-63635000D01*
X90693212Y-63635000D01*
X90678000Y-63638026D01*
X90678000Y-63627000D01*
X89828750Y-63627000D01*
X89670000Y-63785750D01*
X89666928Y-64000000D01*
X89679188Y-64124482D01*
X89715498Y-64244180D01*
X89759888Y-64327226D01*
X89713617Y-64438933D01*
X89670000Y-64658212D01*
X89670000Y-64881788D01*
X89713617Y-65101067D01*
X89760603Y-65214500D01*
X75771200Y-65214500D01*
X75722932Y-64971842D01*
X75610990Y-64701589D01*
X75448475Y-64458368D01*
X75316620Y-64326513D01*
X75389180Y-64304502D01*
X75499494Y-64245537D01*
X75596185Y-64166185D01*
X75675537Y-64069494D01*
X75734502Y-63959180D01*
X75770812Y-63839482D01*
X75783072Y-63715000D01*
X75780000Y-63150750D01*
X75629250Y-63000000D01*
X89666928Y-63000000D01*
X89670000Y-63214250D01*
X89828750Y-63373000D01*
X90678000Y-63373000D01*
X90678000Y-62523750D01*
X90519250Y-62365000D01*
X90305000Y-62361928D01*
X90180518Y-62374188D01*
X90060820Y-62410498D01*
X89950506Y-62469463D01*
X89853815Y-62548815D01*
X89774463Y-62645506D01*
X89715498Y-62755820D01*
X89679188Y-62875518D01*
X89666928Y-63000000D01*
X75629250Y-63000000D01*
X75621250Y-62992000D01*
X74422000Y-62992000D01*
X74422000Y-63012000D01*
X74168000Y-63012000D01*
X74168000Y-62992000D01*
X74148000Y-62992000D01*
X74148000Y-62738000D01*
X74168000Y-62738000D01*
X74168000Y-61538750D01*
X74422000Y-61538750D01*
X74422000Y-62738000D01*
X75621250Y-62738000D01*
X75780000Y-62579250D01*
X75783072Y-62015000D01*
X75770812Y-61890518D01*
X75734502Y-61770820D01*
X75675537Y-61660506D01*
X75596185Y-61563815D01*
X75499494Y-61484463D01*
X75389180Y-61425498D01*
X75269482Y-61389188D01*
X75145000Y-61376928D01*
X74580750Y-61380000D01*
X74422000Y-61538750D01*
X74168000Y-61538750D01*
X74009250Y-61380000D01*
X73445000Y-61376928D01*
X73320518Y-61389188D01*
X73200820Y-61425498D01*
X73100000Y-61479388D01*
X73100000Y-57587032D01*
X73555000Y-57587032D01*
X73555000Y-57982968D01*
X73632243Y-58371296D01*
X73783761Y-58737092D01*
X74003731Y-59066301D01*
X74283699Y-59346269D01*
X74612908Y-59566239D01*
X74978704Y-59717757D01*
X75367032Y-59795000D01*
X75762968Y-59795000D01*
X76151296Y-59717757D01*
X76517092Y-59566239D01*
X76846301Y-59346269D01*
X77126269Y-59066301D01*
X77346239Y-58737092D01*
X77497757Y-58371296D01*
X77575000Y-57982968D01*
X77575000Y-57587032D01*
X77497757Y-57198704D01*
X77346239Y-56832908D01*
X77126269Y-56503699D01*
X76846301Y-56223731D01*
X76517092Y-56003761D01*
X76151296Y-55852243D01*
X75762968Y-55775000D01*
X75367032Y-55775000D01*
X74978704Y-55852243D01*
X74612908Y-56003761D01*
X74283699Y-56223731D01*
X74003731Y-56503699D01*
X73783761Y-56832908D01*
X73632243Y-57198704D01*
X73555000Y-57587032D01*
X73100000Y-57587032D01*
X73100000Y-55914720D01*
X73114005Y-55771891D01*
X73145402Y-55667899D01*
X73196399Y-55571986D01*
X73265055Y-55487806D01*
X73348758Y-55418560D01*
X73444311Y-55366895D01*
X73548078Y-55334773D01*
X73688641Y-55320000D01*
X121210001Y-55320000D01*
X121210000Y-56480122D01*
G37*
X121210000Y-56480122D02*
X121206565Y-56515000D01*
X121220273Y-56654184D01*
X121260872Y-56788020D01*
X121326800Y-56911363D01*
X121415525Y-57019475D01*
X121475260Y-57068498D01*
X121523637Y-57108200D01*
X121646980Y-57174128D01*
X121780816Y-57214727D01*
X121920000Y-57228435D01*
X121954877Y-57225000D01*
X123750000Y-57225000D01*
X123750001Y-69180113D01*
X123746565Y-69215000D01*
X123760273Y-69354184D01*
X123800872Y-69488020D01*
X123866800Y-69611363D01*
X123955525Y-69719475D01*
X124063637Y-69808200D01*
X124186980Y-69874128D01*
X124320816Y-69914727D01*
X124425123Y-69925000D01*
X124460000Y-69928435D01*
X124494877Y-69925000D01*
X140935123Y-69925000D01*
X140970000Y-69928435D01*
X141004877Y-69925000D01*
X141109184Y-69914727D01*
X141243020Y-69874128D01*
X141366363Y-69808200D01*
X141474475Y-69719475D01*
X141563200Y-69611363D01*
X141629128Y-69488020D01*
X141669727Y-69354184D01*
X141683435Y-69215000D01*
X141680000Y-69180123D01*
X141680000Y-57225000D01*
X144070000Y-57225000D01*
X144070001Y-69180113D01*
X144066565Y-69215000D01*
X144080273Y-69354184D01*
X144120872Y-69488020D01*
X144186800Y-69611363D01*
X144275525Y-69719475D01*
X144383637Y-69808200D01*
X144506980Y-69874128D01*
X144640816Y-69914727D01*
X144745123Y-69925000D01*
X144780000Y-69928435D01*
X144814877Y-69925000D01*
X161255123Y-69925000D01*
X161290000Y-69928435D01*
X161324877Y-69925000D01*
X161429184Y-69914727D01*
X161563020Y-69874128D01*
X161686363Y-69808200D01*
X161794475Y-69719475D01*
X161883200Y-69611363D01*
X161949128Y-69488020D01*
X161989727Y-69354184D01*
X162003435Y-69215000D01*
X162000000Y-69180123D01*
X162000000Y-57587032D01*
X164995000Y-57587032D01*
X164995000Y-57982968D01*
X165072243Y-58371296D01*
X165223761Y-58737092D01*
X165443731Y-59066301D01*
X165723699Y-59346269D01*
X166052908Y-59566239D01*
X166418704Y-59717757D01*
X166807032Y-59795000D01*
X167202968Y-59795000D01*
X167591296Y-59717757D01*
X167957092Y-59566239D01*
X168286301Y-59346269D01*
X168566269Y-59066301D01*
X168786239Y-58737092D01*
X168937757Y-58371296D01*
X169015000Y-57982968D01*
X169015000Y-57587032D01*
X168937757Y-57198704D01*
X168786239Y-56832908D01*
X168566269Y-56503699D01*
X168286301Y-56223731D01*
X167957092Y-56003761D01*
X167591296Y-55852243D01*
X167202968Y-55775000D01*
X166807032Y-55775000D01*
X166418704Y-55852243D01*
X166052908Y-56003761D01*
X165723699Y-56223731D01*
X165443731Y-56503699D01*
X165223761Y-56832908D01*
X165072243Y-57198704D01*
X164995000Y-57587032D01*
X162000000Y-57587032D01*
X162000000Y-57225000D01*
X163795123Y-57225000D01*
X163830000Y-57228435D01*
X163864877Y-57225000D01*
X163969184Y-57214727D01*
X164103020Y-57174128D01*
X164226363Y-57108200D01*
X164334475Y-57019475D01*
X164423200Y-56911363D01*
X164489128Y-56788020D01*
X164529727Y-56654184D01*
X164543435Y-56515000D01*
X164540000Y-56480123D01*
X164540000Y-55320000D01*
X168875280Y-55320000D01*
X169018109Y-55334005D01*
X169122101Y-55365402D01*
X169218014Y-55416399D01*
X169302194Y-55485055D01*
X169371440Y-55568758D01*
X169423105Y-55664311D01*
X169455227Y-55768078D01*
X169470000Y-55908641D01*
X169470001Y-72315000D01*
X166404877Y-72315000D01*
X166370000Y-72311565D01*
X166335123Y-72315000D01*
X166230816Y-72325273D01*
X166096980Y-72365872D01*
X165973637Y-72431800D01*
X165865525Y-72520525D01*
X165776800Y-72628637D01*
X165710872Y-72751980D01*
X165670273Y-72885816D01*
X165656565Y-73025000D01*
X165660001Y-73059887D01*
X165660000Y-78070123D01*
X165656565Y-78105000D01*
X165670273Y-78244184D01*
X165710872Y-78378020D01*
X165776800Y-78501363D01*
X165865525Y-78609475D01*
X165969788Y-78695041D01*
X165973637Y-78698200D01*
X166096980Y-78764128D01*
X166230816Y-78804727D01*
X166370000Y-78818435D01*
X166404877Y-78815000D01*
X169470001Y-78815000D01*
X169470000Y-151095280D01*
X169455995Y-151238109D01*
X169424599Y-151342099D01*
X169373601Y-151438013D01*
X169304941Y-151522199D01*
X169221243Y-151591439D01*
X169125689Y-151643105D01*
X169021922Y-151675227D01*
X168881359Y-151690000D01*
X133219374Y-151690000D01*
X133195009Y-151653877D01*
X133159769Y-151600025D01*
X133153504Y-151592342D01*
X133074508Y-151496853D01*
X133028875Y-151451537D01*
X132983824Y-151405532D01*
X132976191Y-151399219D01*
X132976185Y-151399213D01*
X132976178Y-151399209D01*
X132880147Y-151320886D01*
X132826579Y-151285296D01*
X132773450Y-151248917D01*
X132764729Y-151244203D01*
X132655306Y-151186021D01*
X132595826Y-151161505D01*
X132536663Y-151136148D01*
X132527193Y-151133216D01*
X132408552Y-151097396D01*
X132345458Y-151084903D01*
X132282479Y-151071517D01*
X132272620Y-151070481D01*
X132149281Y-151058388D01*
X132118303Y-151058388D01*
X132087511Y-151055040D01*
X132077598Y-151055004D01*
X132073165Y-151055019D01*
X132042272Y-151058154D01*
X132011213Y-151057937D01*
X132001347Y-151058905D01*
X131878096Y-151071860D01*
X131815074Y-151084797D01*
X131751854Y-151096857D01*
X131742364Y-151099722D01*
X131623976Y-151136369D01*
X131564660Y-151161303D01*
X131504988Y-151185412D01*
X131496236Y-151190066D01*
X131387221Y-151249010D01*
X131333877Y-151284991D01*
X131280025Y-151320231D01*
X131272342Y-151326496D01*
X131176853Y-151405492D01*
X131131537Y-151451125D01*
X131085532Y-151496176D01*
X131079219Y-151503809D01*
X131079213Y-151503815D01*
X131079209Y-151503822D01*
X131000886Y-151599853D01*
X130965296Y-151653421D01*
X130940249Y-151690000D01*
X111629374Y-151690000D01*
X111605009Y-151653877D01*
X111569769Y-151600025D01*
X111563504Y-151592342D01*
X111484508Y-151496853D01*
X111438875Y-151451537D01*
X111393824Y-151405532D01*
X111386191Y-151399219D01*
X111386185Y-151399213D01*
X111386178Y-151399209D01*
X111290147Y-151320886D01*
X111236579Y-151285296D01*
X111183450Y-151248917D01*
X111174729Y-151244203D01*
X111065306Y-151186021D01*
X111005826Y-151161505D01*
X110946663Y-151136148D01*
X110937193Y-151133216D01*
X110818552Y-151097396D01*
X110755458Y-151084903D01*
X110692479Y-151071517D01*
X110682620Y-151070481D01*
X110559281Y-151058388D01*
X110528303Y-151058388D01*
X110497511Y-151055040D01*
X110487598Y-151055004D01*
X110483165Y-151055019D01*
X110452272Y-151058154D01*
X110421213Y-151057937D01*
X110411347Y-151058905D01*
X110288096Y-151071860D01*
X110225074Y-151084797D01*
X110161854Y-151096857D01*
X110152364Y-151099722D01*
X110033976Y-151136369D01*
X109974660Y-151161303D01*
X109914988Y-151185412D01*
X109906236Y-151190066D01*
X109797221Y-151249010D01*
X109743877Y-151284991D01*
X109690025Y-151320231D01*
X109682342Y-151326496D01*
X109586853Y-151405492D01*
X109541537Y-151451125D01*
X109495532Y-151496176D01*
X109489219Y-151503809D01*
X109489213Y-151503815D01*
X109489209Y-151503822D01*
X109410886Y-151599853D01*
X109375296Y-151653421D01*
X109350249Y-151690000D01*
X96269714Y-151690000D01*
X96791467Y-151473883D01*
X97324466Y-151117744D01*
X97777744Y-150664466D01*
X98133883Y-150131467D01*
X98379195Y-149539231D01*
X98481077Y-149027032D01*
X164995000Y-149027032D01*
X164995000Y-149422968D01*
X165072243Y-149811296D01*
X165223761Y-150177092D01*
X165443731Y-150506301D01*
X165723699Y-150786269D01*
X166052908Y-151006239D01*
X166418704Y-151157757D01*
X166807032Y-151235000D01*
X167202968Y-151235000D01*
X167591296Y-151157757D01*
X167957092Y-151006239D01*
X168286301Y-150786269D01*
X168566269Y-150506301D01*
X168786239Y-150177092D01*
X168937757Y-149811296D01*
X169015000Y-149422968D01*
X169015000Y-149027032D01*
X168937757Y-148638704D01*
X168786239Y-148272908D01*
X168566269Y-147943699D01*
X168286301Y-147663731D01*
X167957092Y-147443761D01*
X167591296Y-147292243D01*
X167202968Y-147215000D01*
X166807032Y-147215000D01*
X166418704Y-147292243D01*
X166052908Y-147443761D01*
X165723699Y-147663731D01*
X165443731Y-147943699D01*
X165223761Y-148272908D01*
X165072243Y-148638704D01*
X164995000Y-149027032D01*
X98481077Y-149027032D01*
X98504254Y-148910516D01*
X98504254Y-148269484D01*
X98379195Y-147640769D01*
X98133883Y-147048533D01*
X97777744Y-146515534D01*
X97324466Y-146062256D01*
X96791467Y-145706117D01*
X96199231Y-145460805D01*
X95570516Y-145335746D01*
X94929484Y-145335746D01*
X94300769Y-145460805D01*
X93708533Y-145706117D01*
X93175534Y-146062256D01*
X92722256Y-146515534D01*
X92366117Y-147048533D01*
X92120805Y-147640769D01*
X91995746Y-148269484D01*
X91995746Y-148910516D01*
X92120805Y-149539231D01*
X92366117Y-150131467D01*
X92722256Y-150664466D01*
X93175534Y-151117744D01*
X93708533Y-151473883D01*
X94230286Y-151690000D01*
X86109714Y-151690000D01*
X86631467Y-151473883D01*
X87164466Y-151117744D01*
X87617744Y-150664466D01*
X87973883Y-150131467D01*
X88219195Y-149539231D01*
X88344254Y-148910516D01*
X88344254Y-148269484D01*
X88219195Y-147640769D01*
X87973883Y-147048533D01*
X87617744Y-146515534D01*
X87164466Y-146062256D01*
X86631467Y-145706117D01*
X86039231Y-145460805D01*
X85410516Y-145335746D01*
X84769484Y-145335746D01*
X84140769Y-145460805D01*
X83548533Y-145706117D01*
X83015534Y-146062256D01*
X82562256Y-146515534D01*
X82206117Y-147048533D01*
X81960805Y-147640769D01*
X81835746Y-148269484D01*
X81835746Y-148910516D01*
X81960805Y-149539231D01*
X82206117Y-150131467D01*
X82562256Y-150664466D01*
X83015534Y-151117744D01*
X83548533Y-151473883D01*
X84070286Y-151690000D01*
X73694720Y-151690000D01*
X73551891Y-151675995D01*
X73447901Y-151644599D01*
X73351987Y-151593601D01*
X73267801Y-151524941D01*
X73198561Y-151441243D01*
X73146895Y-151345689D01*
X73114773Y-151241922D01*
X73100000Y-151101359D01*
X73100000Y-149027032D01*
X73555000Y-149027032D01*
X73555000Y-149422968D01*
X73632243Y-149811296D01*
X73783761Y-150177092D01*
X74003731Y-150506301D01*
X74283699Y-150786269D01*
X74612908Y-151006239D01*
X74978704Y-151157757D01*
X75367032Y-151235000D01*
X75762968Y-151235000D01*
X76151296Y-151157757D01*
X76517092Y-151006239D01*
X76846301Y-150786269D01*
X77126269Y-150506301D01*
X77346239Y-150177092D01*
X77497757Y-149811296D01*
X77575000Y-149422968D01*
X77575000Y-149027032D01*
X77497757Y-148638704D01*
X77346239Y-148272908D01*
X77126269Y-147943699D01*
X76846301Y-147663731D01*
X76517092Y-147443761D01*
X76151296Y-147292243D01*
X75762968Y-147215000D01*
X75367032Y-147215000D01*
X74978704Y-147292243D01*
X74612908Y-147443761D01*
X74283699Y-147663731D01*
X74003731Y-147943699D01*
X73783761Y-148272908D01*
X73632243Y-148638704D01*
X73555000Y-149027032D01*
X73100000Y-149027032D01*
X73100000Y-103505000D01*
X112300000Y-103505000D01*
X112387441Y-104755470D01*
X112648064Y-105981602D01*
X113076794Y-107159529D01*
X113665288Y-108266325D01*
X114402091Y-109280447D01*
X115272862Y-110182156D01*
X116260652Y-110953903D01*
X117346235Y-111580665D01*
X118508482Y-112050243D01*
X119724771Y-112353498D01*
X120971428Y-112484527D01*
X122224188Y-112440779D01*
X123458668Y-112223107D01*
X124650840Y-111835747D01*
X125777500Y-111286238D01*
X126816718Y-110585277D01*
X127748268Y-109746505D01*
X128554018Y-108786250D01*
X129218284Y-107723202D01*
X129728138Y-106578051D01*
X130073656Y-105373087D01*
X130248113Y-104131762D01*
X130248113Y-102878238D01*
X130073656Y-101636913D01*
X129728138Y-100431949D01*
X129218284Y-99286798D01*
X128554018Y-98223750D01*
X127748268Y-97263495D01*
X126816718Y-96424723D01*
X125777500Y-95723762D01*
X124650840Y-95174253D01*
X123458668Y-94786893D01*
X122224188Y-94569221D01*
X120971428Y-94525473D01*
X119724771Y-94656502D01*
X118508482Y-94959757D01*
X117346235Y-95429335D01*
X116260652Y-96056097D01*
X115272862Y-96827844D01*
X114402091Y-97729553D01*
X113665288Y-98743675D01*
X113076794Y-99850471D01*
X112648064Y-101028398D01*
X112387441Y-102254530D01*
X112300000Y-103505000D01*
X73100000Y-103505000D01*
X73100000Y-82734344D01*
X94315000Y-82734344D01*
X94315000Y-83105656D01*
X94387439Y-83469834D01*
X94529534Y-83812882D01*
X94735825Y-84121618D01*
X94998382Y-84384175D01*
X95307118Y-84590466D01*
X95650166Y-84732561D01*
X96014344Y-84805000D01*
X96385656Y-84805000D01*
X96749834Y-84732561D01*
X97092882Y-84590466D01*
X97401618Y-84384175D01*
X97664175Y-84121618D01*
X97870466Y-83812882D01*
X98012561Y-83469834D01*
X98085000Y-83105656D01*
X98085000Y-82734344D01*
X117815000Y-82734344D01*
X117815000Y-83105656D01*
X117887439Y-83469834D01*
X118029534Y-83812882D01*
X118235825Y-84121618D01*
X118498382Y-84384175D01*
X118807118Y-84590466D01*
X119150166Y-84732561D01*
X119514344Y-84805000D01*
X119885656Y-84805000D01*
X120249834Y-84732561D01*
X120592882Y-84590466D01*
X120901618Y-84384175D01*
X121164175Y-84121618D01*
X121370466Y-83812882D01*
X121512561Y-83469834D01*
X121585000Y-83105656D01*
X121585000Y-82734344D01*
X121512561Y-82370166D01*
X121370466Y-82027118D01*
X121164175Y-81718382D01*
X120901618Y-81455825D01*
X120592882Y-81249534D01*
X120249834Y-81107439D01*
X119885656Y-81035000D01*
X119514344Y-81035000D01*
X119150166Y-81107439D01*
X118807118Y-81249534D01*
X118498382Y-81455825D01*
X118235825Y-81718382D01*
X118029534Y-82027118D01*
X117887439Y-82370166D01*
X117815000Y-82734344D01*
X98085000Y-82734344D01*
X98012561Y-82370166D01*
X97870466Y-82027118D01*
X97664175Y-81718382D01*
X97401618Y-81455825D01*
X97092882Y-81249534D01*
X96749834Y-81107439D01*
X96385656Y-81035000D01*
X96014344Y-81035000D01*
X95650166Y-81107439D01*
X95307118Y-81249534D01*
X94998382Y-81455825D01*
X94735825Y-81718382D01*
X94529534Y-82027118D01*
X94387439Y-82370166D01*
X94315000Y-82734344D01*
X73100000Y-82734344D01*
X73100000Y-78815000D01*
X76165123Y-78815000D01*
X76200000Y-78818435D01*
X76234877Y-78815000D01*
X76339184Y-78804727D01*
X76473020Y-78764128D01*
X76596363Y-78698200D01*
X76704475Y-78609475D01*
X76793200Y-78501363D01*
X76859128Y-78378020D01*
X76899727Y-78244184D01*
X76913435Y-78105000D01*
X76910000Y-78070123D01*
X76910000Y-73059877D01*
X76913435Y-73025000D01*
X76899727Y-72885816D01*
X76859128Y-72751980D01*
X76827001Y-72691874D01*
X89710881Y-72691874D01*
X89727554Y-72746864D01*
X89817877Y-72950206D01*
X89946135Y-73132020D01*
X90107399Y-73285318D01*
X90295471Y-73404210D01*
X90503124Y-73484126D01*
X90678000Y-73359129D01*
X90678000Y-72517000D01*
X90932000Y-72517000D01*
X90932000Y-73359129D01*
X91106876Y-73484126D01*
X91314529Y-73404210D01*
X91502601Y-73285318D01*
X91663865Y-73132020D01*
X91792123Y-72950206D01*
X91882446Y-72746864D01*
X91899119Y-72691874D01*
X91772954Y-72517000D01*
X90932000Y-72517000D01*
X90678000Y-72517000D01*
X89837046Y-72517000D01*
X89710881Y-72691874D01*
X76827001Y-72691874D01*
X76793200Y-72628637D01*
X76704475Y-72520525D01*
X76596363Y-72431800D01*
X76473020Y-72365872D01*
X76339184Y-72325273D01*
X76234877Y-72315000D01*
X76200000Y-72311565D01*
X76165123Y-72315000D01*
X73100000Y-72315000D01*
X73100000Y-71369485D01*
X73141525Y-71431632D01*
X73348368Y-71638475D01*
X73591589Y-71800990D01*
X73861842Y-71912932D01*
X74148740Y-71970000D01*
X74441260Y-71970000D01*
X74728158Y-71912932D01*
X74998411Y-71800990D01*
X75241632Y-71638475D01*
X75448475Y-71431632D01*
X75610990Y-71188411D01*
X75722932Y-70918158D01*
X75780000Y-70631260D01*
X75780000Y-70338740D01*
X75736209Y-70118592D01*
X76514802Y-69340000D01*
X88989465Y-69340000D01*
X89092111Y-69408586D01*
X89262271Y-69479068D01*
X89442911Y-69515000D01*
X89627089Y-69515000D01*
X89666928Y-69507075D01*
X89666928Y-70350000D01*
X89679188Y-70474482D01*
X89715498Y-70594180D01*
X89759888Y-70677226D01*
X89713617Y-70788933D01*
X89670000Y-71008212D01*
X89670000Y-71231788D01*
X89713617Y-71451067D01*
X89799176Y-71657624D01*
X89867353Y-71759658D01*
X89817877Y-71829794D01*
X89727554Y-72033136D01*
X89710881Y-72088126D01*
X89837046Y-72263000D01*
X90678000Y-72263000D01*
X90678000Y-72251974D01*
X90693212Y-72255000D01*
X90916788Y-72255000D01*
X90932000Y-72251974D01*
X90932000Y-72263000D01*
X91772954Y-72263000D01*
X91899119Y-72088126D01*
X91882446Y-72033136D01*
X91843519Y-71945500D01*
X92034450Y-71945500D01*
X92075000Y-71949494D01*
X92115550Y-71945500D01*
X92115553Y-71945500D01*
X92236826Y-71933556D01*
X92392434Y-71886353D01*
X92535842Y-71809699D01*
X92661541Y-71706541D01*
X92687397Y-71675035D01*
X93265045Y-71097388D01*
X93296541Y-71071541D01*
X93322389Y-71040045D01*
X93322392Y-71040042D01*
X93399699Y-70945843D01*
X93476353Y-70802434D01*
X93483994Y-70777246D01*
X93523556Y-70646826D01*
X93535500Y-70525553D01*
X93535500Y-70525551D01*
X93539494Y-70485000D01*
X93535500Y-70444450D01*
X93535500Y-68137510D01*
X93537111Y-68138586D01*
X93707271Y-68209068D01*
X93714495Y-68210505D01*
X93715932Y-68217729D01*
X93786414Y-68387889D01*
X93888738Y-68541028D01*
X94018972Y-68671262D01*
X94172111Y-68773586D01*
X94342271Y-68844068D01*
X94522911Y-68880000D01*
X94540001Y-68880000D01*
X94540000Y-78070123D01*
X94536565Y-78105000D01*
X94550273Y-78244184D01*
X94590872Y-78378020D01*
X94656800Y-78501363D01*
X94745525Y-78609475D01*
X94849788Y-78695041D01*
X94853637Y-78698200D01*
X94976980Y-78764128D01*
X95110816Y-78804727D01*
X95250000Y-78818435D01*
X95284877Y-78815000D01*
X120615123Y-78815000D01*
X120650000Y-78818435D01*
X120684877Y-78815000D01*
X120789184Y-78804727D01*
X120923020Y-78764128D01*
X121046363Y-78698200D01*
X121154475Y-78609475D01*
X121243200Y-78501363D01*
X121309128Y-78378020D01*
X121349727Y-78244184D01*
X121363435Y-78105000D01*
X121360000Y-78070123D01*
X121360000Y-62264877D01*
X121363435Y-62230000D01*
X121349727Y-62090816D01*
X121309128Y-61956980D01*
X121243200Y-61833637D01*
X121154475Y-61725525D01*
X121046363Y-61636800D01*
X120923020Y-61570872D01*
X120789184Y-61530273D01*
X120684877Y-61520000D01*
X120650000Y-61516565D01*
X120615123Y-61520000D01*
X109735632Y-61520000D01*
X109760001Y-61500001D01*
X109783804Y-61470997D01*
X111468430Y-59786372D01*
X111622408Y-59817000D01*
X111897592Y-59817000D01*
X112167490Y-59763314D01*
X112421727Y-59658005D01*
X112650535Y-59505120D01*
X112845120Y-59310535D01*
X112998005Y-59081727D01*
X113103314Y-58827490D01*
X113157000Y-58557592D01*
X113157000Y-58282408D01*
X113103314Y-58012510D01*
X112998005Y-57758273D01*
X112845120Y-57529465D01*
X112650535Y-57334880D01*
X112421727Y-57181995D01*
X112167490Y-57076686D01*
X111897592Y-57023000D01*
X111622408Y-57023000D01*
X111352510Y-57076686D01*
X111098273Y-57181995D01*
X110869465Y-57334880D01*
X110674880Y-57529465D01*
X110521995Y-57758273D01*
X110490000Y-57835515D01*
X110458005Y-57758273D01*
X110305120Y-57529465D01*
X110110535Y-57334880D01*
X109881727Y-57181995D01*
X109627490Y-57076686D01*
X109357592Y-57023000D01*
X109082408Y-57023000D01*
X108812510Y-57076686D01*
X108558273Y-57181995D01*
X108329465Y-57334880D01*
X108134880Y-57529465D01*
X107981995Y-57758273D01*
X107950000Y-57835515D01*
X107918005Y-57758273D01*
X107765120Y-57529465D01*
X107570535Y-57334880D01*
X107341727Y-57181995D01*
X107087490Y-57076686D01*
X106817592Y-57023000D01*
X106542408Y-57023000D01*
X106272510Y-57076686D01*
X106018273Y-57181995D01*
X105789465Y-57334880D01*
X105594880Y-57529465D01*
X105536080Y-57617465D01*
X105527812Y-57533518D01*
X105491502Y-57413820D01*
X105432537Y-57303506D01*
X105353185Y-57206815D01*
X105256494Y-57127463D01*
X105146180Y-57068498D01*
X105026482Y-57032188D01*
X104902000Y-57019928D01*
X103378000Y-57019928D01*
X103253518Y-57032188D01*
X103133820Y-57068498D01*
X103023506Y-57127463D01*
X102926815Y-57206815D01*
X102847463Y-57303506D01*
X102788498Y-57413820D01*
X102752188Y-57533518D01*
X102746182Y-57594500D01*
X93385550Y-57594500D01*
X93345000Y-57590506D01*
X93304449Y-57594500D01*
X93304447Y-57594500D01*
X93183174Y-57606444D01*
X93027566Y-57653647D01*
X92884157Y-57730301D01*
X92789958Y-57807608D01*
X92789955Y-57807611D01*
X92758459Y-57833459D01*
X92732610Y-57864956D01*
X92154961Y-58442607D01*
X92123460Y-58468459D01*
X92097609Y-58499959D01*
X92020301Y-58594158D01*
X91943647Y-58737567D01*
X91896445Y-58893174D01*
X91880506Y-59055000D01*
X91884501Y-59095560D01*
X91884500Y-62737108D01*
X91835537Y-62645506D01*
X91756185Y-62548815D01*
X91659494Y-62469463D01*
X91549180Y-62410498D01*
X91429482Y-62374188D01*
X91305000Y-62361928D01*
X91090750Y-62365000D01*
X90932000Y-62523750D01*
X90932000Y-63373000D01*
X90952000Y-63373000D01*
X90952000Y-63627000D01*
X90932000Y-63627000D01*
X90932000Y-63638026D01*
X90916788Y-63635000D01*
X90693212Y-63635000D01*
X90678000Y-63638026D01*
X90678000Y-63627000D01*
X89828750Y-63627000D01*
X89670000Y-63785750D01*
X89666928Y-64000000D01*
X89679188Y-64124482D01*
X89715498Y-64244180D01*
X89759888Y-64327226D01*
X89713617Y-64438933D01*
X89670000Y-64658212D01*
X89670000Y-64881788D01*
X89713617Y-65101067D01*
X89760603Y-65214500D01*
X75771200Y-65214500D01*
X75722932Y-64971842D01*
X75610990Y-64701589D01*
X75448475Y-64458368D01*
X75316620Y-64326513D01*
X75389180Y-64304502D01*
X75499494Y-64245537D01*
X75596185Y-64166185D01*
X75675537Y-64069494D01*
X75734502Y-63959180D01*
X75770812Y-63839482D01*
X75783072Y-63715000D01*
X75780000Y-63150750D01*
X75629250Y-63000000D01*
X89666928Y-63000000D01*
X89670000Y-63214250D01*
X89828750Y-63373000D01*
X90678000Y-63373000D01*
X90678000Y-62523750D01*
X90519250Y-62365000D01*
X90305000Y-62361928D01*
X90180518Y-62374188D01*
X90060820Y-62410498D01*
X89950506Y-62469463D01*
X89853815Y-62548815D01*
X89774463Y-62645506D01*
X89715498Y-62755820D01*
X89679188Y-62875518D01*
X89666928Y-63000000D01*
X75629250Y-63000000D01*
X75621250Y-62992000D01*
X74422000Y-62992000D01*
X74422000Y-63012000D01*
X74168000Y-63012000D01*
X74168000Y-62992000D01*
X74148000Y-62992000D01*
X74148000Y-62738000D01*
X74168000Y-62738000D01*
X74168000Y-61538750D01*
X74422000Y-61538750D01*
X74422000Y-62738000D01*
X75621250Y-62738000D01*
X75780000Y-62579250D01*
X75783072Y-62015000D01*
X75770812Y-61890518D01*
X75734502Y-61770820D01*
X75675537Y-61660506D01*
X75596185Y-61563815D01*
X75499494Y-61484463D01*
X75389180Y-61425498D01*
X75269482Y-61389188D01*
X75145000Y-61376928D01*
X74580750Y-61380000D01*
X74422000Y-61538750D01*
X74168000Y-61538750D01*
X74009250Y-61380000D01*
X73445000Y-61376928D01*
X73320518Y-61389188D01*
X73200820Y-61425498D01*
X73100000Y-61479388D01*
X73100000Y-57587032D01*
X73555000Y-57587032D01*
X73555000Y-57982968D01*
X73632243Y-58371296D01*
X73783761Y-58737092D01*
X74003731Y-59066301D01*
X74283699Y-59346269D01*
X74612908Y-59566239D01*
X74978704Y-59717757D01*
X75367032Y-59795000D01*
X75762968Y-59795000D01*
X76151296Y-59717757D01*
X76517092Y-59566239D01*
X76846301Y-59346269D01*
X77126269Y-59066301D01*
X77346239Y-58737092D01*
X77497757Y-58371296D01*
X77575000Y-57982968D01*
X77575000Y-57587032D01*
X77497757Y-57198704D01*
X77346239Y-56832908D01*
X77126269Y-56503699D01*
X76846301Y-56223731D01*
X76517092Y-56003761D01*
X76151296Y-55852243D01*
X75762968Y-55775000D01*
X75367032Y-55775000D01*
X74978704Y-55852243D01*
X74612908Y-56003761D01*
X74283699Y-56223731D01*
X74003731Y-56503699D01*
X73783761Y-56832908D01*
X73632243Y-57198704D01*
X73555000Y-57587032D01*
X73100000Y-57587032D01*
X73100000Y-55914720D01*
X73114005Y-55771891D01*
X73145402Y-55667899D01*
X73196399Y-55571986D01*
X73265055Y-55487806D01*
X73348758Y-55418560D01*
X73444311Y-55366895D01*
X73548078Y-55334773D01*
X73688641Y-55320000D01*
X121210001Y-55320000D01*
X121210000Y-56480122D01*
M02*
