G04 #@! TF.GenerationSoftware,KiCad,Pcbnew,(5.1.5)-3*
G04 #@! TF.CreationDate,2020-10-01T20:26:26+02:00*
G04 #@! TF.ProjectId,C64 Pi1541-II Faceplate,43363420-5069-4313-9534-312d49492046,rev?*
G04 #@! TF.SameCoordinates,Original*
G04 #@! TF.FileFunction,Soldermask,Bot*
G04 #@! TF.FilePolarity,Negative*
%FSLAX46Y46*%
G04 Gerber Fmt 4.6, Leading zero omitted, Abs format (unit mm)*
G04 Created by KiCad (PCBNEW (5.1.5)-3) date 2020-10-01 20:26:26*
%MOMM*%
%LPD*%
G04 APERTURE LIST*
%ADD10C,3.800000*%
%ADD11C,0.100000*%
%ADD12C,1.150000*%
%ADD13C,1.250000*%
%ADD14C,2.500000*%
%ADD15C,1.924000*%
%ADD16R,1.924000X1.924000*%
%ADD17C,2.900000*%
%ADD18O,2.100000X2.100000*%
%ADD19R,2.100000X2.100000*%
%ADD20C,6.000000*%
%ADD21O,1.400000X1.400000*%
%ADD22R,1.400000X1.400000*%
G04 APERTURE END LIST*
D10*
X133985000Y-103505000D02*
G75*
G03X133985000Y-103505000I-12700000J0D01*
G01*
D11*
G36*
X140335000Y-109220000D02*
G01*
X139065000Y-109220000D01*
X139065000Y-107950000D01*
X140335000Y-107950000D01*
X140335000Y-109220000D01*
G37*
X140335000Y-109220000D02*
X139065000Y-109220000D01*
X139065000Y-107950000D01*
X140335000Y-107950000D01*
X140335000Y-109220000D01*
D12*
X140335000Y-108585000D02*
G75*
G03X140335000Y-108585000I-635000J0D01*
G01*
X140970000Y-108585000D02*
G75*
G03X140970000Y-108585000I-1270000J0D01*
G01*
D13*
X125577226Y-125283108D02*
G75*
G03X116840000Y-125730000I-4292226J-1716892D01*
G01*
X125577227Y-125918109D02*
G75*
G03X116840000Y-126365000I-4292227J-1716891D01*
G01*
X125730000Y-125095000D02*
G75*
G03X116840000Y-125095000I-4445000J-1270000D01*
G01*
X124460000Y-125730000D02*
G75*
G03X118110000Y-125730000I-3175000J-1270000D01*
G01*
D11*
G36*
X126365000Y-146050000D02*
G01*
X116205000Y-146050000D01*
X116205000Y-125095000D01*
X126365000Y-125095000D01*
X126365000Y-146050000D01*
G37*
X126365000Y-146050000D02*
X116205000Y-146050000D01*
X116205000Y-125095000D01*
X126365000Y-125095000D01*
X126365000Y-146050000D01*
D13*
X116840000Y-146050000D02*
G75*
G03X125730000Y-146050000I4445000J1270000D01*
G01*
X118110000Y-144145000D02*
G75*
G03X124460000Y-144145000I3175000J1270000D01*
G01*
X118110000Y-144780000D02*
G75*
G03X124460000Y-144780000I3175000J1270000D01*
G01*
X124460000Y-127000000D02*
G75*
G03X118110000Y-127000000I-3175000J-1270000D01*
G01*
X116992773Y-145226891D02*
G75*
G03X125730000Y-144780000I4292227J1716891D01*
G01*
X116840000Y-145415000D02*
G75*
G03X125730000Y-145415000I4445000J1270000D01*
G01*
D14*
X96520000Y-148590000D02*
G75*
G03X96520000Y-148590000I-1270000J0D01*
G01*
X86360000Y-148590000D02*
G75*
G03X86360000Y-148590000I-1270000J0D01*
G01*
D15*
X111760000Y-59055000D03*
X109220000Y-59055000D03*
X106680000Y-59055000D03*
D16*
X104140000Y-59055000D03*
D17*
X96200000Y-83555000D03*
X119700000Y-83555000D03*
D18*
X74295000Y-70485000D03*
X74295000Y-67945000D03*
X74295000Y-65405000D03*
D19*
X74295000Y-62865000D03*
D20*
X75565000Y-149225000D03*
X167005000Y-149225000D03*
X167005000Y-57785000D03*
X75565000Y-57785000D03*
D21*
X90805000Y-66040000D03*
X90805000Y-64770000D03*
D22*
X90805000Y-63500000D03*
X90805000Y-69850000D03*
D21*
X90805000Y-71120000D03*
X90805000Y-72390000D03*
M02*
