G04 #@! TF.GenerationSoftware,KiCad,Pcbnew,(5.1.5)-3*
G04 #@! TF.CreationDate,2020-11-06T22:30:45+01:00*
G04 #@! TF.ProjectId,C64 Pi1541-II Faceplate,43363420-5069-4313-9534-312d49492046,rev?*
G04 #@! TF.SameCoordinates,Original*
G04 #@! TF.FileFunction,Soldermask,Top*
G04 #@! TF.FilePolarity,Negative*
%FSLAX46Y46*%
G04 Gerber Fmt 4.6, Leading zero omitted, Abs format (unit mm)*
G04 Created by KiCad (PCBNEW (5.1.5)-3) date 2020-11-06 22:30:45*
%MOMM*%
%LPD*%
G04 APERTURE LIST*
%ADD10C,1.250000*%
%ADD11C,0.100000*%
%ADD12C,1.150000*%
%ADD13C,3.800000*%
%ADD14C,2.127200*%
%ADD15R,2.127200X2.127200*%
%ADD16C,2.900000*%
%ADD17C,5.100000*%
%ADD18O,2.100000X2.100000*%
%ADD19R,2.100000X2.100000*%
G04 APERTURE END LIST*
D10*
X116840000Y-125730000D02*
G75*
G02X125730000Y-125730000I4445000J-1270000D01*
G01*
X116992773Y-125918109D02*
G75*
G02X125730000Y-126365000I4292227J-1716891D01*
G01*
X116840000Y-125095000D02*
G75*
G02X125730000Y-125095000I4445000J-1270000D01*
G01*
X118110000Y-126365000D02*
G75*
G02X124460000Y-126365000I3175000J-1270000D01*
G01*
X118110000Y-127000000D02*
G75*
G02X124460000Y-127000000I3175000J-1270000D01*
G01*
X124460000Y-144780000D02*
G75*
G02X118110000Y-144780000I-3175000J1270000D01*
G01*
X124460000Y-144145000D02*
G75*
G02X118110000Y-144145000I-3175000J1270000D01*
G01*
D11*
G36*
X140335000Y-109220000D02*
G01*
X139065000Y-109220000D01*
X139065000Y-107950000D01*
X140335000Y-107950000D01*
X140335000Y-109220000D01*
G37*
X140335000Y-109220000D02*
X139065000Y-109220000D01*
X139065000Y-107950000D01*
X140335000Y-107950000D01*
X140335000Y-109220000D01*
D12*
X140335000Y-108585000D02*
G75*
G03X140335000Y-108585000I-635000J0D01*
G01*
X140970000Y-108585000D02*
G75*
G03X140970000Y-108585000I-1270000J0D01*
G01*
D10*
X124460000Y-145415000D02*
G75*
G02X118110000Y-145415000I-3175000J1270000D01*
G01*
X125577227Y-145226891D02*
G75*
G02X116840000Y-144780000I-4292227J1716891D01*
G01*
X125577226Y-145861892D02*
G75*
G02X116840000Y-145415000I-4292226J1716892D01*
G01*
D11*
G36*
X126365000Y-146050000D02*
G01*
X116205000Y-146050000D01*
X116205000Y-125095000D01*
X126365000Y-125095000D01*
X126365000Y-146050000D01*
G37*
X126365000Y-146050000D02*
X116205000Y-146050000D01*
X116205000Y-125095000D01*
X126365000Y-125095000D01*
X126365000Y-146050000D01*
D10*
X125730000Y-146050000D02*
G75*
G02X116840000Y-146050000I-4445000J1270000D01*
G01*
D13*
X133985000Y-103505000D02*
G75*
G03X133985000Y-103505000I-12700000J0D01*
G01*
D14*
X111760000Y-59055000D03*
X109220000Y-59055000D03*
X106680000Y-59055000D03*
D15*
X104140000Y-59055000D03*
D16*
X96200000Y-83555000D03*
X119700000Y-83555000D03*
D17*
X75565000Y-149225000D03*
X167005000Y-149225000D03*
X167005000Y-57785000D03*
X75565000Y-57785000D03*
D18*
X74295000Y-70485000D03*
X74295000Y-67945000D03*
X74295000Y-65405000D03*
D19*
X74295000Y-62865000D03*
M02*
