G04 #@! TF.GenerationSoftware,KiCad,Pcbnew,(5.1.5)-3*
G04 #@! TF.CreationDate,2020-11-06T22:39:25+01:00*
G04 #@! TF.ProjectId,C64 Pi1541-II Backplate,43363420-5069-4313-9534-312d49492042,rev?*
G04 #@! TF.SameCoordinates,Original*
G04 #@! TF.FileFunction,Soldermask,Bot*
G04 #@! TF.FilePolarity,Negative*
%FSLAX46Y46*%
G04 Gerber Fmt 4.6, Leading zero omitted, Abs format (unit mm)*
G04 Created by KiCad (PCBNEW (5.1.5)-3) date 2020-11-06 22:39:25*
%MOMM*%
%LPD*%
G04 APERTURE LIST*
%ADD10C,3.800000*%
%ADD11C,1.250000*%
%ADD12C,0.100000*%
%ADD13C,1.150000*%
%ADD14C,5.100000*%
G04 APERTURE END LIST*
D10*
X131445000Y-103505000D02*
G75*
G03X131445000Y-103505000I-10160000J0D01*
G01*
D11*
X118110000Y-144780000D02*
G75*
G03X124460000Y-144780000I3175000J1270000D01*
G01*
X124460000Y-127000000D02*
G75*
G03X118110000Y-127000000I-3175000J-1270000D01*
G01*
X124460000Y-126365000D02*
G75*
G03X118110000Y-126365000I-3175000J-1270000D01*
G01*
X125577227Y-125918109D02*
G75*
G03X116840000Y-126365000I-4292227J-1716891D01*
G01*
X118110000Y-144145000D02*
G75*
G03X124460000Y-144145000I3175000J1270000D01*
G01*
X125730000Y-125095000D02*
G75*
G03X116840000Y-125095000I-4445000J-1270000D01*
G01*
X125730000Y-125730000D02*
G75*
G03X116840000Y-125730000I-4445000J-1270000D01*
G01*
X116840000Y-146050000D02*
G75*
G03X125730000Y-146050000I4445000J1270000D01*
G01*
D12*
G36*
X126365000Y-146050000D02*
G01*
X116205000Y-146050000D01*
X116205000Y-125095000D01*
X126365000Y-125095000D01*
X126365000Y-146050000D01*
G37*
X126365000Y-146050000D02*
X116205000Y-146050000D01*
X116205000Y-125095000D01*
X126365000Y-125095000D01*
X126365000Y-146050000D01*
D11*
X116992774Y-145861892D02*
G75*
G03X125730000Y-145415000I4292226J1716892D01*
G01*
X116992773Y-145226891D02*
G75*
G03X125730000Y-144780000I4292227J1716891D01*
G01*
D13*
X140970000Y-108585000D02*
G75*
G03X140970000Y-108585000I-1270000J0D01*
G01*
X140970000Y-108585000D02*
G75*
G03X140970000Y-108585000I-1270000J0D01*
G01*
D12*
G36*
X140462000Y-109220000D02*
G01*
X138938000Y-109220000D01*
X138938000Y-107696000D01*
X140462000Y-107696000D01*
X140462000Y-109220000D01*
G37*
X140462000Y-109220000D02*
X138938000Y-109220000D01*
X138938000Y-107696000D01*
X140462000Y-107696000D01*
X140462000Y-109220000D01*
D13*
X140335000Y-108585000D02*
G75*
G03X140335000Y-108585000I-635000J0D01*
G01*
X140970000Y-108585000D02*
G75*
G03X140970000Y-108585000I-1270000J0D01*
G01*
D10*
X133985000Y-103505000D02*
G75*
G03X133985000Y-103505000I-12700000J0D01*
G01*
D14*
X75565000Y-149225000D03*
X167005000Y-149225000D03*
X167005000Y-57785000D03*
X75565000Y-57785000D03*
M02*
