G04 #@! TF.GenerationSoftware,KiCad,Pcbnew,(5.1.5)-3*
G04 #@! TF.CreationDate,2020-06-19T22:28:30+02:00*
G04 #@! TF.ProjectId,C64 Pi1541-II Backplate,43363420-5069-4313-9534-312d49492042,rev?*
G04 #@! TF.SameCoordinates,Original*
G04 #@! TF.FileFunction,Soldermask,Top*
G04 #@! TF.FilePolarity,Negative*
%FSLAX46Y46*%
G04 Gerber Fmt 4.6, Leading zero omitted, Abs format (unit mm)*
G04 Created by KiCad (PCBNEW (5.1.5)-3) date 2020-06-19 22:28:30*
%MOMM*%
%LPD*%
G04 APERTURE LIST*
%ADD10C,0.100000*%
%ADD11C,1.150000*%
%ADD12C,3.800000*%
%ADD13C,1.250000*%
%ADD14C,6.000000*%
G04 APERTURE END LIST*
D10*
G36*
X140462000Y-109474000D02*
G01*
X138938000Y-109474000D01*
X138938000Y-107696000D01*
X140462000Y-107696000D01*
X140462000Y-109474000D01*
G37*
X140462000Y-109474000D02*
X138938000Y-109474000D01*
X138938000Y-107696000D01*
X140462000Y-107696000D01*
X140462000Y-109474000D01*
D11*
X140970000Y-108585000D02*
G75*
G03X140970000Y-108585000I-1270000J0D01*
G01*
D12*
X133858000Y-103378000D02*
G75*
G03X133858000Y-103378000I-12700000J0D01*
G01*
D13*
X116840000Y-125730000D02*
G75*
G02X125730000Y-125730000I4445000J-1270000D01*
G01*
X116992773Y-125918109D02*
G75*
G02X125730000Y-126365000I4292227J-1716891D01*
G01*
X116840000Y-125095000D02*
G75*
G02X125730000Y-125095000I4445000J-1270000D01*
G01*
X118110000Y-126365000D02*
G75*
G02X124460000Y-126365000I3175000J-1270000D01*
G01*
X118110000Y-127000000D02*
G75*
G02X124460000Y-127000000I3175000J-1270000D01*
G01*
X124460000Y-144780000D02*
G75*
G02X118110000Y-144780000I-3175000J1270000D01*
G01*
X124460000Y-144145000D02*
G75*
G02X118110000Y-144145000I-3175000J1270000D01*
G01*
X124460000Y-145415000D02*
G75*
G02X118110000Y-145415000I-3175000J1270000D01*
G01*
X125577227Y-145226891D02*
G75*
G02X116840000Y-144780000I-4292227J1716891D01*
G01*
X125577226Y-145861892D02*
G75*
G02X116840000Y-145415000I-4292226J1716892D01*
G01*
D10*
G36*
X126365000Y-146050000D02*
G01*
X116205000Y-146050000D01*
X116205000Y-125095000D01*
X126365000Y-125095000D01*
X126365000Y-146050000D01*
G37*
X126365000Y-146050000D02*
X116205000Y-146050000D01*
X116205000Y-125095000D01*
X126365000Y-125095000D01*
X126365000Y-146050000D01*
D13*
X125730000Y-146050000D02*
G75*
G02X116840000Y-146050000I-4445000J1270000D01*
G01*
D14*
X75565000Y-149225000D03*
X167005000Y-149225000D03*
X167005000Y-57785000D03*
X75565000Y-57785000D03*
M02*
