G04 #@! TF.GenerationSoftware,KiCad,Pcbnew,(5.1.5)-3*
G04 #@! TF.CreationDate,2020-10-01T21:58:09+02:00*
G04 #@! TF.ProjectId,C64 Pi1541-II Backplate,43363420-5069-4313-9534-312d49492042,rev?*
G04 #@! TF.SameCoordinates,Original*
G04 #@! TF.FileFunction,Copper,L1,Top*
G04 #@! TF.FilePolarity,Positive*
%FSLAX46Y46*%
G04 Gerber Fmt 4.6, Leading zero omitted, Abs format (unit mm)*
G04 Created by KiCad (PCBNEW (5.1.5)-3) date 2020-10-01 21:58:09*
%MOMM*%
%LPD*%
G04 APERTURE LIST*
%ADD10C,3.500000*%
%ADD11C,0.254000*%
G04 APERTURE END LIST*
D10*
X75565000Y-149225000D03*
X167005000Y-149225000D03*
X167005000Y-57785000D03*
X75565000Y-57785000D03*
D11*
G36*
X169018109Y-55334005D02*
G01*
X169122101Y-55365402D01*
X169218014Y-55416399D01*
X169302194Y-55485055D01*
X169371440Y-55568758D01*
X169423105Y-55664311D01*
X169455227Y-55768078D01*
X169470000Y-55908641D01*
X169470001Y-72315000D01*
X166404877Y-72315000D01*
X166370000Y-72311565D01*
X166335123Y-72315000D01*
X166230816Y-72325273D01*
X166096980Y-72365872D01*
X165973637Y-72431800D01*
X165865525Y-72520525D01*
X165776800Y-72628637D01*
X165710872Y-72751980D01*
X165670273Y-72885816D01*
X165656565Y-73025000D01*
X165660001Y-73059887D01*
X165660000Y-78070123D01*
X165656565Y-78105000D01*
X165670273Y-78244184D01*
X165710872Y-78378020D01*
X165776800Y-78501363D01*
X165865525Y-78609475D01*
X165969788Y-78695041D01*
X165973637Y-78698200D01*
X166096980Y-78764128D01*
X166230816Y-78804727D01*
X166370000Y-78818435D01*
X166404877Y-78815000D01*
X169470001Y-78815000D01*
X169470000Y-151095280D01*
X169455995Y-151238109D01*
X169424599Y-151342099D01*
X169373601Y-151438013D01*
X169304941Y-151522199D01*
X169221243Y-151591439D01*
X169125689Y-151643105D01*
X169021922Y-151675227D01*
X168881359Y-151690000D01*
X133219374Y-151690000D01*
X133195009Y-151653877D01*
X133159769Y-151600025D01*
X133153504Y-151592342D01*
X133074508Y-151496853D01*
X133028875Y-151451537D01*
X132983824Y-151405532D01*
X132976191Y-151399219D01*
X132976185Y-151399213D01*
X132976178Y-151399209D01*
X132880147Y-151320886D01*
X132826579Y-151285296D01*
X132773450Y-151248917D01*
X132764729Y-151244203D01*
X132655306Y-151186021D01*
X132595826Y-151161505D01*
X132536663Y-151136148D01*
X132527193Y-151133216D01*
X132408552Y-151097396D01*
X132345458Y-151084903D01*
X132282479Y-151071517D01*
X132272620Y-151070481D01*
X132149281Y-151058388D01*
X132118303Y-151058388D01*
X132087511Y-151055040D01*
X132077598Y-151055004D01*
X132073165Y-151055019D01*
X132042272Y-151058154D01*
X132011213Y-151057937D01*
X132001347Y-151058905D01*
X131878096Y-151071860D01*
X131815074Y-151084797D01*
X131751854Y-151096857D01*
X131742364Y-151099722D01*
X131623976Y-151136369D01*
X131564660Y-151161303D01*
X131504988Y-151185412D01*
X131496236Y-151190066D01*
X131387221Y-151249010D01*
X131333877Y-151284991D01*
X131280025Y-151320231D01*
X131272342Y-151326496D01*
X131176853Y-151405492D01*
X131131537Y-151451125D01*
X131085532Y-151496176D01*
X131079219Y-151503809D01*
X131079213Y-151503815D01*
X131079209Y-151503822D01*
X131000886Y-151599853D01*
X130965296Y-151653421D01*
X130940249Y-151690000D01*
X111629374Y-151690000D01*
X111605009Y-151653877D01*
X111569769Y-151600025D01*
X111563504Y-151592342D01*
X111484508Y-151496853D01*
X111438875Y-151451537D01*
X111393824Y-151405532D01*
X111386191Y-151399219D01*
X111386185Y-151399213D01*
X111386178Y-151399209D01*
X111290147Y-151320886D01*
X111236579Y-151285296D01*
X111183450Y-151248917D01*
X111174729Y-151244203D01*
X111065306Y-151186021D01*
X111005826Y-151161505D01*
X110946663Y-151136148D01*
X110937193Y-151133216D01*
X110818552Y-151097396D01*
X110755458Y-151084903D01*
X110692479Y-151071517D01*
X110682620Y-151070481D01*
X110559281Y-151058388D01*
X110528303Y-151058388D01*
X110497511Y-151055040D01*
X110487598Y-151055004D01*
X110483165Y-151055019D01*
X110452272Y-151058154D01*
X110421213Y-151057937D01*
X110411347Y-151058905D01*
X110288096Y-151071860D01*
X110225074Y-151084797D01*
X110161854Y-151096857D01*
X110152364Y-151099722D01*
X110033976Y-151136369D01*
X109974660Y-151161303D01*
X109914988Y-151185412D01*
X109906236Y-151190066D01*
X109797221Y-151249010D01*
X109743877Y-151284991D01*
X109690025Y-151320231D01*
X109682342Y-151326496D01*
X109586853Y-151405492D01*
X109541537Y-151451125D01*
X109495532Y-151496176D01*
X109489219Y-151503809D01*
X109489213Y-151503815D01*
X109489209Y-151503822D01*
X109410886Y-151599853D01*
X109375296Y-151653421D01*
X109350249Y-151690000D01*
X73694720Y-151690000D01*
X73551891Y-151675995D01*
X73447901Y-151644599D01*
X73351987Y-151593601D01*
X73267801Y-151524941D01*
X73198561Y-151441243D01*
X73146895Y-151345689D01*
X73114773Y-151241922D01*
X73100000Y-151101359D01*
X73100000Y-150894609D01*
X74074997Y-150894609D01*
X74261073Y-151235766D01*
X74678409Y-151451513D01*
X75129815Y-151581696D01*
X75597946Y-151621313D01*
X76064811Y-151568842D01*
X76512468Y-151426297D01*
X76868927Y-151235766D01*
X77055003Y-150894609D01*
X165514997Y-150894609D01*
X165701073Y-151235766D01*
X166118409Y-151451513D01*
X166569815Y-151581696D01*
X167037946Y-151621313D01*
X167504811Y-151568842D01*
X167952468Y-151426297D01*
X168308927Y-151235766D01*
X168495003Y-150894609D01*
X167005000Y-149404605D01*
X165514997Y-150894609D01*
X77055003Y-150894609D01*
X75565000Y-149404605D01*
X74074997Y-150894609D01*
X73100000Y-150894609D01*
X73100000Y-149257946D01*
X73168687Y-149257946D01*
X73221158Y-149724811D01*
X73363703Y-150172468D01*
X73554234Y-150528927D01*
X73895391Y-150715003D01*
X75385395Y-149225000D01*
X75744605Y-149225000D01*
X77234609Y-150715003D01*
X77575766Y-150528927D01*
X77791513Y-150111591D01*
X77921696Y-149660185D01*
X77955736Y-149257946D01*
X164608687Y-149257946D01*
X164661158Y-149724811D01*
X164803703Y-150172468D01*
X164994234Y-150528927D01*
X165335391Y-150715003D01*
X166825395Y-149225000D01*
X167184605Y-149225000D01*
X168674609Y-150715003D01*
X169015766Y-150528927D01*
X169231513Y-150111591D01*
X169361696Y-149660185D01*
X169401313Y-149192054D01*
X169348842Y-148725189D01*
X169206297Y-148277532D01*
X169015766Y-147921073D01*
X168674609Y-147734997D01*
X167184605Y-149225000D01*
X166825395Y-149225000D01*
X165335391Y-147734997D01*
X164994234Y-147921073D01*
X164778487Y-148338409D01*
X164648304Y-148789815D01*
X164608687Y-149257946D01*
X77955736Y-149257946D01*
X77961313Y-149192054D01*
X77908842Y-148725189D01*
X77766297Y-148277532D01*
X77575766Y-147921073D01*
X77234609Y-147734997D01*
X75744605Y-149225000D01*
X75385395Y-149225000D01*
X73895391Y-147734997D01*
X73554234Y-147921073D01*
X73338487Y-148338409D01*
X73208304Y-148789815D01*
X73168687Y-149257946D01*
X73100000Y-149257946D01*
X73100000Y-147555391D01*
X74074997Y-147555391D01*
X75565000Y-149045395D01*
X77055003Y-147555391D01*
X165514997Y-147555391D01*
X167005000Y-149045395D01*
X168495003Y-147555391D01*
X168308927Y-147214234D01*
X167891591Y-146998487D01*
X167440185Y-146868304D01*
X166972054Y-146828687D01*
X166505189Y-146881158D01*
X166057532Y-147023703D01*
X165701073Y-147214234D01*
X165514997Y-147555391D01*
X77055003Y-147555391D01*
X76868927Y-147214234D01*
X76451591Y-146998487D01*
X76000185Y-146868304D01*
X75532054Y-146828687D01*
X75065189Y-146881158D01*
X74617532Y-147023703D01*
X74261073Y-147214234D01*
X74074997Y-147555391D01*
X73100000Y-147555391D01*
X73100000Y-103505000D01*
X112300000Y-103505000D01*
X112387441Y-104755470D01*
X112648064Y-105981602D01*
X113076794Y-107159529D01*
X113665288Y-108266325D01*
X114402091Y-109280447D01*
X115272862Y-110182156D01*
X116260652Y-110953903D01*
X117346235Y-111580665D01*
X118508482Y-112050243D01*
X119724771Y-112353498D01*
X120971428Y-112484527D01*
X122224188Y-112440779D01*
X123458668Y-112223107D01*
X124650840Y-111835747D01*
X125777500Y-111286238D01*
X126816718Y-110585277D01*
X127748268Y-109746505D01*
X128554018Y-108786250D01*
X129218284Y-107723202D01*
X129728138Y-106578051D01*
X130073656Y-105373087D01*
X130248113Y-104131762D01*
X130248113Y-102878238D01*
X130073656Y-101636913D01*
X129728138Y-100431949D01*
X129218284Y-99286798D01*
X128554018Y-98223750D01*
X127748268Y-97263495D01*
X126816718Y-96424723D01*
X125777500Y-95723762D01*
X124650840Y-95174253D01*
X123458668Y-94786893D01*
X122224188Y-94569221D01*
X120971428Y-94525473D01*
X119724771Y-94656502D01*
X118508482Y-94959757D01*
X117346235Y-95429335D01*
X116260652Y-96056097D01*
X115272862Y-96827844D01*
X114402091Y-97729553D01*
X113665288Y-98743675D01*
X113076794Y-99850471D01*
X112648064Y-101028398D01*
X112387441Y-102254530D01*
X112300000Y-103505000D01*
X73100000Y-103505000D01*
X73100000Y-78815000D01*
X76165123Y-78815000D01*
X76200000Y-78818435D01*
X76234877Y-78815000D01*
X76339184Y-78804727D01*
X76473020Y-78764128D01*
X76596363Y-78698200D01*
X76704475Y-78609475D01*
X76793200Y-78501363D01*
X76859128Y-78378020D01*
X76899727Y-78244184D01*
X76913435Y-78105000D01*
X76910000Y-78070123D01*
X76910000Y-73059877D01*
X76913435Y-73025000D01*
X76899727Y-72885816D01*
X76859128Y-72751980D01*
X76793200Y-72628637D01*
X76704475Y-72520525D01*
X76596363Y-72431800D01*
X76473020Y-72365872D01*
X76339184Y-72325273D01*
X76234877Y-72315000D01*
X76200000Y-72311565D01*
X76165123Y-72315000D01*
X73100000Y-72315000D01*
X73100000Y-59454609D01*
X74074997Y-59454609D01*
X74261073Y-59795766D01*
X74678409Y-60011513D01*
X75129815Y-60141696D01*
X75597946Y-60181313D01*
X76064811Y-60128842D01*
X76512468Y-59986297D01*
X76868927Y-59795766D01*
X77055003Y-59454609D01*
X165514997Y-59454609D01*
X165701073Y-59795766D01*
X166118409Y-60011513D01*
X166569815Y-60141696D01*
X167037946Y-60181313D01*
X167504811Y-60128842D01*
X167952468Y-59986297D01*
X168308927Y-59795766D01*
X168495003Y-59454609D01*
X167005000Y-57964605D01*
X165514997Y-59454609D01*
X77055003Y-59454609D01*
X75565000Y-57964605D01*
X74074997Y-59454609D01*
X73100000Y-59454609D01*
X73100000Y-57817946D01*
X73168687Y-57817946D01*
X73221158Y-58284811D01*
X73363703Y-58732468D01*
X73554234Y-59088927D01*
X73895391Y-59275003D01*
X75385395Y-57785000D01*
X75744605Y-57785000D01*
X77234609Y-59275003D01*
X77575766Y-59088927D01*
X77791513Y-58671591D01*
X77921696Y-58220185D01*
X77955736Y-57817946D01*
X164608687Y-57817946D01*
X164661158Y-58284811D01*
X164803703Y-58732468D01*
X164994234Y-59088927D01*
X165335391Y-59275003D01*
X166825395Y-57785000D01*
X167184605Y-57785000D01*
X168674609Y-59275003D01*
X169015766Y-59088927D01*
X169231513Y-58671591D01*
X169361696Y-58220185D01*
X169401313Y-57752054D01*
X169348842Y-57285189D01*
X169206297Y-56837532D01*
X169015766Y-56481073D01*
X168674609Y-56294997D01*
X167184605Y-57785000D01*
X166825395Y-57785000D01*
X165335391Y-56294997D01*
X164994234Y-56481073D01*
X164778487Y-56898409D01*
X164648304Y-57349815D01*
X164608687Y-57817946D01*
X77955736Y-57817946D01*
X77961313Y-57752054D01*
X77908842Y-57285189D01*
X77766297Y-56837532D01*
X77575766Y-56481073D01*
X77234609Y-56294997D01*
X75744605Y-57785000D01*
X75385395Y-57785000D01*
X73895391Y-56294997D01*
X73554234Y-56481073D01*
X73338487Y-56898409D01*
X73208304Y-57349815D01*
X73168687Y-57817946D01*
X73100000Y-57817946D01*
X73100000Y-56115391D01*
X74074997Y-56115391D01*
X75565000Y-57605395D01*
X77055003Y-56115391D01*
X165514997Y-56115391D01*
X167005000Y-57605395D01*
X168495003Y-56115391D01*
X168308927Y-55774234D01*
X167891591Y-55558487D01*
X167440185Y-55428304D01*
X166972054Y-55388687D01*
X166505189Y-55441158D01*
X166057532Y-55583703D01*
X165701073Y-55774234D01*
X165514997Y-56115391D01*
X77055003Y-56115391D01*
X76868927Y-55774234D01*
X76451591Y-55558487D01*
X76000185Y-55428304D01*
X75532054Y-55388687D01*
X75065189Y-55441158D01*
X74617532Y-55583703D01*
X74261073Y-55774234D01*
X74074997Y-56115391D01*
X73100000Y-56115391D01*
X73100000Y-55914720D01*
X73114005Y-55771891D01*
X73145402Y-55667899D01*
X73196399Y-55571986D01*
X73265055Y-55487806D01*
X73348758Y-55418560D01*
X73444311Y-55366895D01*
X73548078Y-55334773D01*
X73688641Y-55320000D01*
X168875280Y-55320000D01*
X169018109Y-55334005D01*
G37*
X169018109Y-55334005D02*
X169122101Y-55365402D01*
X169218014Y-55416399D01*
X169302194Y-55485055D01*
X169371440Y-55568758D01*
X169423105Y-55664311D01*
X169455227Y-55768078D01*
X169470000Y-55908641D01*
X169470001Y-72315000D01*
X166404877Y-72315000D01*
X166370000Y-72311565D01*
X166335123Y-72315000D01*
X166230816Y-72325273D01*
X166096980Y-72365872D01*
X165973637Y-72431800D01*
X165865525Y-72520525D01*
X165776800Y-72628637D01*
X165710872Y-72751980D01*
X165670273Y-72885816D01*
X165656565Y-73025000D01*
X165660001Y-73059887D01*
X165660000Y-78070123D01*
X165656565Y-78105000D01*
X165670273Y-78244184D01*
X165710872Y-78378020D01*
X165776800Y-78501363D01*
X165865525Y-78609475D01*
X165969788Y-78695041D01*
X165973637Y-78698200D01*
X166096980Y-78764128D01*
X166230816Y-78804727D01*
X166370000Y-78818435D01*
X166404877Y-78815000D01*
X169470001Y-78815000D01*
X169470000Y-151095280D01*
X169455995Y-151238109D01*
X169424599Y-151342099D01*
X169373601Y-151438013D01*
X169304941Y-151522199D01*
X169221243Y-151591439D01*
X169125689Y-151643105D01*
X169021922Y-151675227D01*
X168881359Y-151690000D01*
X133219374Y-151690000D01*
X133195009Y-151653877D01*
X133159769Y-151600025D01*
X133153504Y-151592342D01*
X133074508Y-151496853D01*
X133028875Y-151451537D01*
X132983824Y-151405532D01*
X132976191Y-151399219D01*
X132976185Y-151399213D01*
X132976178Y-151399209D01*
X132880147Y-151320886D01*
X132826579Y-151285296D01*
X132773450Y-151248917D01*
X132764729Y-151244203D01*
X132655306Y-151186021D01*
X132595826Y-151161505D01*
X132536663Y-151136148D01*
X132527193Y-151133216D01*
X132408552Y-151097396D01*
X132345458Y-151084903D01*
X132282479Y-151071517D01*
X132272620Y-151070481D01*
X132149281Y-151058388D01*
X132118303Y-151058388D01*
X132087511Y-151055040D01*
X132077598Y-151055004D01*
X132073165Y-151055019D01*
X132042272Y-151058154D01*
X132011213Y-151057937D01*
X132001347Y-151058905D01*
X131878096Y-151071860D01*
X131815074Y-151084797D01*
X131751854Y-151096857D01*
X131742364Y-151099722D01*
X131623976Y-151136369D01*
X131564660Y-151161303D01*
X131504988Y-151185412D01*
X131496236Y-151190066D01*
X131387221Y-151249010D01*
X131333877Y-151284991D01*
X131280025Y-151320231D01*
X131272342Y-151326496D01*
X131176853Y-151405492D01*
X131131537Y-151451125D01*
X131085532Y-151496176D01*
X131079219Y-151503809D01*
X131079213Y-151503815D01*
X131079209Y-151503822D01*
X131000886Y-151599853D01*
X130965296Y-151653421D01*
X130940249Y-151690000D01*
X111629374Y-151690000D01*
X111605009Y-151653877D01*
X111569769Y-151600025D01*
X111563504Y-151592342D01*
X111484508Y-151496853D01*
X111438875Y-151451537D01*
X111393824Y-151405532D01*
X111386191Y-151399219D01*
X111386185Y-151399213D01*
X111386178Y-151399209D01*
X111290147Y-151320886D01*
X111236579Y-151285296D01*
X111183450Y-151248917D01*
X111174729Y-151244203D01*
X111065306Y-151186021D01*
X111005826Y-151161505D01*
X110946663Y-151136148D01*
X110937193Y-151133216D01*
X110818552Y-151097396D01*
X110755458Y-151084903D01*
X110692479Y-151071517D01*
X110682620Y-151070481D01*
X110559281Y-151058388D01*
X110528303Y-151058388D01*
X110497511Y-151055040D01*
X110487598Y-151055004D01*
X110483165Y-151055019D01*
X110452272Y-151058154D01*
X110421213Y-151057937D01*
X110411347Y-151058905D01*
X110288096Y-151071860D01*
X110225074Y-151084797D01*
X110161854Y-151096857D01*
X110152364Y-151099722D01*
X110033976Y-151136369D01*
X109974660Y-151161303D01*
X109914988Y-151185412D01*
X109906236Y-151190066D01*
X109797221Y-151249010D01*
X109743877Y-151284991D01*
X109690025Y-151320231D01*
X109682342Y-151326496D01*
X109586853Y-151405492D01*
X109541537Y-151451125D01*
X109495532Y-151496176D01*
X109489219Y-151503809D01*
X109489213Y-151503815D01*
X109489209Y-151503822D01*
X109410886Y-151599853D01*
X109375296Y-151653421D01*
X109350249Y-151690000D01*
X73694720Y-151690000D01*
X73551891Y-151675995D01*
X73447901Y-151644599D01*
X73351987Y-151593601D01*
X73267801Y-151524941D01*
X73198561Y-151441243D01*
X73146895Y-151345689D01*
X73114773Y-151241922D01*
X73100000Y-151101359D01*
X73100000Y-150894609D01*
X74074997Y-150894609D01*
X74261073Y-151235766D01*
X74678409Y-151451513D01*
X75129815Y-151581696D01*
X75597946Y-151621313D01*
X76064811Y-151568842D01*
X76512468Y-151426297D01*
X76868927Y-151235766D01*
X77055003Y-150894609D01*
X165514997Y-150894609D01*
X165701073Y-151235766D01*
X166118409Y-151451513D01*
X166569815Y-151581696D01*
X167037946Y-151621313D01*
X167504811Y-151568842D01*
X167952468Y-151426297D01*
X168308927Y-151235766D01*
X168495003Y-150894609D01*
X167005000Y-149404605D01*
X165514997Y-150894609D01*
X77055003Y-150894609D01*
X75565000Y-149404605D01*
X74074997Y-150894609D01*
X73100000Y-150894609D01*
X73100000Y-149257946D01*
X73168687Y-149257946D01*
X73221158Y-149724811D01*
X73363703Y-150172468D01*
X73554234Y-150528927D01*
X73895391Y-150715003D01*
X75385395Y-149225000D01*
X75744605Y-149225000D01*
X77234609Y-150715003D01*
X77575766Y-150528927D01*
X77791513Y-150111591D01*
X77921696Y-149660185D01*
X77955736Y-149257946D01*
X164608687Y-149257946D01*
X164661158Y-149724811D01*
X164803703Y-150172468D01*
X164994234Y-150528927D01*
X165335391Y-150715003D01*
X166825395Y-149225000D01*
X167184605Y-149225000D01*
X168674609Y-150715003D01*
X169015766Y-150528927D01*
X169231513Y-150111591D01*
X169361696Y-149660185D01*
X169401313Y-149192054D01*
X169348842Y-148725189D01*
X169206297Y-148277532D01*
X169015766Y-147921073D01*
X168674609Y-147734997D01*
X167184605Y-149225000D01*
X166825395Y-149225000D01*
X165335391Y-147734997D01*
X164994234Y-147921073D01*
X164778487Y-148338409D01*
X164648304Y-148789815D01*
X164608687Y-149257946D01*
X77955736Y-149257946D01*
X77961313Y-149192054D01*
X77908842Y-148725189D01*
X77766297Y-148277532D01*
X77575766Y-147921073D01*
X77234609Y-147734997D01*
X75744605Y-149225000D01*
X75385395Y-149225000D01*
X73895391Y-147734997D01*
X73554234Y-147921073D01*
X73338487Y-148338409D01*
X73208304Y-148789815D01*
X73168687Y-149257946D01*
X73100000Y-149257946D01*
X73100000Y-147555391D01*
X74074997Y-147555391D01*
X75565000Y-149045395D01*
X77055003Y-147555391D01*
X165514997Y-147555391D01*
X167005000Y-149045395D01*
X168495003Y-147555391D01*
X168308927Y-147214234D01*
X167891591Y-146998487D01*
X167440185Y-146868304D01*
X166972054Y-146828687D01*
X166505189Y-146881158D01*
X166057532Y-147023703D01*
X165701073Y-147214234D01*
X165514997Y-147555391D01*
X77055003Y-147555391D01*
X76868927Y-147214234D01*
X76451591Y-146998487D01*
X76000185Y-146868304D01*
X75532054Y-146828687D01*
X75065189Y-146881158D01*
X74617532Y-147023703D01*
X74261073Y-147214234D01*
X74074997Y-147555391D01*
X73100000Y-147555391D01*
X73100000Y-103505000D01*
X112300000Y-103505000D01*
X112387441Y-104755470D01*
X112648064Y-105981602D01*
X113076794Y-107159529D01*
X113665288Y-108266325D01*
X114402091Y-109280447D01*
X115272862Y-110182156D01*
X116260652Y-110953903D01*
X117346235Y-111580665D01*
X118508482Y-112050243D01*
X119724771Y-112353498D01*
X120971428Y-112484527D01*
X122224188Y-112440779D01*
X123458668Y-112223107D01*
X124650840Y-111835747D01*
X125777500Y-111286238D01*
X126816718Y-110585277D01*
X127748268Y-109746505D01*
X128554018Y-108786250D01*
X129218284Y-107723202D01*
X129728138Y-106578051D01*
X130073656Y-105373087D01*
X130248113Y-104131762D01*
X130248113Y-102878238D01*
X130073656Y-101636913D01*
X129728138Y-100431949D01*
X129218284Y-99286798D01*
X128554018Y-98223750D01*
X127748268Y-97263495D01*
X126816718Y-96424723D01*
X125777500Y-95723762D01*
X124650840Y-95174253D01*
X123458668Y-94786893D01*
X122224188Y-94569221D01*
X120971428Y-94525473D01*
X119724771Y-94656502D01*
X118508482Y-94959757D01*
X117346235Y-95429335D01*
X116260652Y-96056097D01*
X115272862Y-96827844D01*
X114402091Y-97729553D01*
X113665288Y-98743675D01*
X113076794Y-99850471D01*
X112648064Y-101028398D01*
X112387441Y-102254530D01*
X112300000Y-103505000D01*
X73100000Y-103505000D01*
X73100000Y-78815000D01*
X76165123Y-78815000D01*
X76200000Y-78818435D01*
X76234877Y-78815000D01*
X76339184Y-78804727D01*
X76473020Y-78764128D01*
X76596363Y-78698200D01*
X76704475Y-78609475D01*
X76793200Y-78501363D01*
X76859128Y-78378020D01*
X76899727Y-78244184D01*
X76913435Y-78105000D01*
X76910000Y-78070123D01*
X76910000Y-73059877D01*
X76913435Y-73025000D01*
X76899727Y-72885816D01*
X76859128Y-72751980D01*
X76793200Y-72628637D01*
X76704475Y-72520525D01*
X76596363Y-72431800D01*
X76473020Y-72365872D01*
X76339184Y-72325273D01*
X76234877Y-72315000D01*
X76200000Y-72311565D01*
X76165123Y-72315000D01*
X73100000Y-72315000D01*
X73100000Y-59454609D01*
X74074997Y-59454609D01*
X74261073Y-59795766D01*
X74678409Y-60011513D01*
X75129815Y-60141696D01*
X75597946Y-60181313D01*
X76064811Y-60128842D01*
X76512468Y-59986297D01*
X76868927Y-59795766D01*
X77055003Y-59454609D01*
X165514997Y-59454609D01*
X165701073Y-59795766D01*
X166118409Y-60011513D01*
X166569815Y-60141696D01*
X167037946Y-60181313D01*
X167504811Y-60128842D01*
X167952468Y-59986297D01*
X168308927Y-59795766D01*
X168495003Y-59454609D01*
X167005000Y-57964605D01*
X165514997Y-59454609D01*
X77055003Y-59454609D01*
X75565000Y-57964605D01*
X74074997Y-59454609D01*
X73100000Y-59454609D01*
X73100000Y-57817946D01*
X73168687Y-57817946D01*
X73221158Y-58284811D01*
X73363703Y-58732468D01*
X73554234Y-59088927D01*
X73895391Y-59275003D01*
X75385395Y-57785000D01*
X75744605Y-57785000D01*
X77234609Y-59275003D01*
X77575766Y-59088927D01*
X77791513Y-58671591D01*
X77921696Y-58220185D01*
X77955736Y-57817946D01*
X164608687Y-57817946D01*
X164661158Y-58284811D01*
X164803703Y-58732468D01*
X164994234Y-59088927D01*
X165335391Y-59275003D01*
X166825395Y-57785000D01*
X167184605Y-57785000D01*
X168674609Y-59275003D01*
X169015766Y-59088927D01*
X169231513Y-58671591D01*
X169361696Y-58220185D01*
X169401313Y-57752054D01*
X169348842Y-57285189D01*
X169206297Y-56837532D01*
X169015766Y-56481073D01*
X168674609Y-56294997D01*
X167184605Y-57785000D01*
X166825395Y-57785000D01*
X165335391Y-56294997D01*
X164994234Y-56481073D01*
X164778487Y-56898409D01*
X164648304Y-57349815D01*
X164608687Y-57817946D01*
X77955736Y-57817946D01*
X77961313Y-57752054D01*
X77908842Y-57285189D01*
X77766297Y-56837532D01*
X77575766Y-56481073D01*
X77234609Y-56294997D01*
X75744605Y-57785000D01*
X75385395Y-57785000D01*
X73895391Y-56294997D01*
X73554234Y-56481073D01*
X73338487Y-56898409D01*
X73208304Y-57349815D01*
X73168687Y-57817946D01*
X73100000Y-57817946D01*
X73100000Y-56115391D01*
X74074997Y-56115391D01*
X75565000Y-57605395D01*
X77055003Y-56115391D01*
X165514997Y-56115391D01*
X167005000Y-57605395D01*
X168495003Y-56115391D01*
X168308927Y-55774234D01*
X167891591Y-55558487D01*
X167440185Y-55428304D01*
X166972054Y-55388687D01*
X166505189Y-55441158D01*
X166057532Y-55583703D01*
X165701073Y-55774234D01*
X165514997Y-56115391D01*
X77055003Y-56115391D01*
X76868927Y-55774234D01*
X76451591Y-55558487D01*
X76000185Y-55428304D01*
X75532054Y-55388687D01*
X75065189Y-55441158D01*
X74617532Y-55583703D01*
X74261073Y-55774234D01*
X74074997Y-56115391D01*
X73100000Y-56115391D01*
X73100000Y-55914720D01*
X73114005Y-55771891D01*
X73145402Y-55667899D01*
X73196399Y-55571986D01*
X73265055Y-55487806D01*
X73348758Y-55418560D01*
X73444311Y-55366895D01*
X73548078Y-55334773D01*
X73688641Y-55320000D01*
X168875280Y-55320000D01*
X169018109Y-55334005D01*
M02*
