G04 #@! TF.GenerationSoftware,KiCad,Pcbnew,(5.1.8)-1*
G04 #@! TF.CreationDate,2021-01-22T22:50:40+01:00*
G04 #@! TF.ProjectId,C64 Pi1541-II FaceplateB,43363420-5069-4313-9534-312d49492046,rev?*
G04 #@! TF.SameCoordinates,Original*
G04 #@! TF.FileFunction,OtherDrawing,Comment*
%FSLAX46Y46*%
G04 Gerber Fmt 4.6, Leading zero omitted, Abs format (unit mm)*
G04 Created by KiCad (PCBNEW (5.1.8)-1) date 2021-01-22 22:50:40*
%MOMM*%
%LPD*%
G01*
G04 APERTURE LIST*
%ADD10C,0.150000*%
G04 APERTURE END LIST*
D10*
X181310595Y-101672380D02*
X181310595Y-100672380D01*
X181548690Y-100672380D01*
X181691547Y-100720000D01*
X181786785Y-100815238D01*
X181834404Y-100910476D01*
X181882023Y-101100952D01*
X181882023Y-101243809D01*
X181834404Y-101434285D01*
X181786785Y-101529523D01*
X181691547Y-101624761D01*
X181548690Y-101672380D01*
X181310595Y-101672380D01*
X182310595Y-101672380D02*
X182310595Y-101005714D01*
X182310595Y-100672380D02*
X182262976Y-100720000D01*
X182310595Y-100767619D01*
X182358214Y-100720000D01*
X182310595Y-100672380D01*
X182310595Y-100767619D01*
X182739166Y-101624761D02*
X182834404Y-101672380D01*
X183024880Y-101672380D01*
X183120119Y-101624761D01*
X183167738Y-101529523D01*
X183167738Y-101481904D01*
X183120119Y-101386666D01*
X183024880Y-101339047D01*
X182882023Y-101339047D01*
X182786785Y-101291428D01*
X182739166Y-101196190D01*
X182739166Y-101148571D01*
X182786785Y-101053333D01*
X182882023Y-101005714D01*
X183024880Y-101005714D01*
X183120119Y-101053333D01*
X183596309Y-101672380D02*
X183596309Y-100672380D01*
X183691547Y-101291428D02*
X183977261Y-101672380D01*
X183977261Y-101005714D02*
X183596309Y-101386666D01*
X185596309Y-101672380D02*
X185596309Y-100672380D01*
X185596309Y-101624761D02*
X185501071Y-101672380D01*
X185310595Y-101672380D01*
X185215357Y-101624761D01*
X185167738Y-101577142D01*
X185120119Y-101481904D01*
X185120119Y-101196190D01*
X185167738Y-101100952D01*
X185215357Y-101053333D01*
X185310595Y-101005714D01*
X185501071Y-101005714D01*
X185596309Y-101053333D01*
X186072500Y-101672380D02*
X186072500Y-101005714D01*
X186072500Y-100672380D02*
X186024880Y-100720000D01*
X186072500Y-100767619D01*
X186120119Y-100720000D01*
X186072500Y-100672380D01*
X186072500Y-100767619D01*
X186548690Y-101672380D02*
X186548690Y-101005714D01*
X186548690Y-101100952D02*
X186596309Y-101053333D01*
X186691547Y-101005714D01*
X186834404Y-101005714D01*
X186929642Y-101053333D01*
X186977261Y-101148571D01*
X186977261Y-101672380D01*
X186977261Y-101148571D02*
X187024880Y-101053333D01*
X187120119Y-101005714D01*
X187262976Y-101005714D01*
X187358214Y-101053333D01*
X187405833Y-101148571D01*
X187405833Y-101672380D01*
X188262976Y-101624761D02*
X188167738Y-101672380D01*
X187977261Y-101672380D01*
X187882023Y-101624761D01*
X187834404Y-101529523D01*
X187834404Y-101148571D01*
X187882023Y-101053333D01*
X187977261Y-101005714D01*
X188167738Y-101005714D01*
X188262976Y-101053333D01*
X188310595Y-101148571D01*
X188310595Y-101243809D01*
X187834404Y-101339047D01*
X188739166Y-101005714D02*
X188739166Y-101672380D01*
X188739166Y-101100952D02*
X188786785Y-101053333D01*
X188882023Y-101005714D01*
X189024880Y-101005714D01*
X189120119Y-101053333D01*
X189167738Y-101148571D01*
X189167738Y-101672380D01*
X189596309Y-101624761D02*
X189691547Y-101672380D01*
X189882023Y-101672380D01*
X189977261Y-101624761D01*
X190024880Y-101529523D01*
X190024880Y-101481904D01*
X189977261Y-101386666D01*
X189882023Y-101339047D01*
X189739166Y-101339047D01*
X189643928Y-101291428D01*
X189596309Y-101196190D01*
X189596309Y-101148571D01*
X189643928Y-101053333D01*
X189739166Y-101005714D01*
X189882023Y-101005714D01*
X189977261Y-101053333D01*
X190453452Y-101672380D02*
X190453452Y-101005714D01*
X190453452Y-100672380D02*
X190405833Y-100720000D01*
X190453452Y-100767619D01*
X190501071Y-100720000D01*
X190453452Y-100672380D01*
X190453452Y-100767619D01*
X191072500Y-101672380D02*
X190977261Y-101624761D01*
X190929642Y-101577142D01*
X190882023Y-101481904D01*
X190882023Y-101196190D01*
X190929642Y-101100952D01*
X190977261Y-101053333D01*
X191072500Y-101005714D01*
X191215357Y-101005714D01*
X191310595Y-101053333D01*
X191358214Y-101100952D01*
X191405833Y-101196190D01*
X191405833Y-101481904D01*
X191358214Y-101577142D01*
X191310595Y-101624761D01*
X191215357Y-101672380D01*
X191072500Y-101672380D01*
X191834404Y-101005714D02*
X191834404Y-101672380D01*
X191834404Y-101100952D02*
X191882023Y-101053333D01*
X191977261Y-101005714D01*
X192120119Y-101005714D01*
X192215357Y-101053333D01*
X192262976Y-101148571D01*
X192262976Y-101672380D01*
X192691547Y-101624761D02*
X192786785Y-101672380D01*
X192977261Y-101672380D01*
X193072500Y-101624761D01*
X193120119Y-101529523D01*
X193120119Y-101481904D01*
X193072500Y-101386666D01*
X192977261Y-101339047D01*
X192834404Y-101339047D01*
X192739166Y-101291428D01*
X192691547Y-101196190D01*
X192691547Y-101148571D01*
X192739166Y-101053333D01*
X192834404Y-101005714D01*
X192977261Y-101005714D01*
X193072500Y-101053333D01*
X193548690Y-101577142D02*
X193596309Y-101624761D01*
X193548690Y-101672380D01*
X193501071Y-101624761D01*
X193548690Y-101577142D01*
X193548690Y-101672380D01*
X193548690Y-101053333D02*
X193596309Y-101100952D01*
X193548690Y-101148571D01*
X193501071Y-101100952D01*
X193548690Y-101053333D01*
X193548690Y-101148571D01*
X195310595Y-101672380D02*
X194739166Y-101672380D01*
X195024880Y-101672380D02*
X195024880Y-100672380D01*
X194929642Y-100815238D01*
X194834404Y-100910476D01*
X194739166Y-100958095D01*
X195643928Y-100672380D02*
X196262976Y-100672380D01*
X195929642Y-101053333D01*
X196072500Y-101053333D01*
X196167738Y-101100952D01*
X196215357Y-101148571D01*
X196262976Y-101243809D01*
X196262976Y-101481904D01*
X196215357Y-101577142D01*
X196167738Y-101624761D01*
X196072500Y-101672380D01*
X195786785Y-101672380D01*
X195691547Y-101624761D01*
X195643928Y-101577142D01*
X196596309Y-100672380D02*
X197215357Y-100672380D01*
X196882023Y-101053333D01*
X197024880Y-101053333D01*
X197120119Y-101100952D01*
X197167738Y-101148571D01*
X197215357Y-101243809D01*
X197215357Y-101481904D01*
X197167738Y-101577142D01*
X197120119Y-101624761D01*
X197024880Y-101672380D01*
X196739166Y-101672380D01*
X196643928Y-101624761D01*
X196596309Y-101577142D01*
X197643928Y-101577142D02*
X197691547Y-101624761D01*
X197643928Y-101672380D01*
X197596309Y-101624761D01*
X197643928Y-101577142D01*
X197643928Y-101672380D01*
X198024880Y-100672380D02*
X198691547Y-100672380D01*
X198262976Y-101672380D01*
X199072500Y-101672380D02*
X199072500Y-101005714D01*
X199072500Y-101100952D02*
X199120119Y-101053333D01*
X199215357Y-101005714D01*
X199358214Y-101005714D01*
X199453452Y-101053333D01*
X199501071Y-101148571D01*
X199501071Y-101672380D01*
X199501071Y-101148571D02*
X199548690Y-101053333D01*
X199643928Y-101005714D01*
X199786785Y-101005714D01*
X199882023Y-101053333D01*
X199929642Y-101148571D01*
X199929642Y-101672380D01*
X200405833Y-101672380D02*
X200405833Y-101005714D01*
X200405833Y-101100952D02*
X200453452Y-101053333D01*
X200548690Y-101005714D01*
X200691547Y-101005714D01*
X200786785Y-101053333D01*
X200834404Y-101148571D01*
X200834404Y-101672380D01*
X200834404Y-101148571D02*
X200882023Y-101053333D01*
X200977261Y-101005714D01*
X201120119Y-101005714D01*
X201215357Y-101053333D01*
X201262976Y-101148571D01*
X201262976Y-101672380D01*
X181310595Y-103322380D02*
X181310595Y-102322380D01*
X181691547Y-102322380D01*
X181786785Y-102370000D01*
X181834404Y-102417619D01*
X181882023Y-102512857D01*
X181882023Y-102655714D01*
X181834404Y-102750952D01*
X181786785Y-102798571D01*
X181691547Y-102846190D01*
X181310595Y-102846190D01*
X182882023Y-103227142D02*
X182834404Y-103274761D01*
X182691547Y-103322380D01*
X182596309Y-103322380D01*
X182453452Y-103274761D01*
X182358214Y-103179523D01*
X182310595Y-103084285D01*
X182262976Y-102893809D01*
X182262976Y-102750952D01*
X182310595Y-102560476D01*
X182358214Y-102465238D01*
X182453452Y-102370000D01*
X182596309Y-102322380D01*
X182691547Y-102322380D01*
X182834404Y-102370000D01*
X182882023Y-102417619D01*
X183643928Y-102798571D02*
X183786785Y-102846190D01*
X183834404Y-102893809D01*
X183882023Y-102989047D01*
X183882023Y-103131904D01*
X183834404Y-103227142D01*
X183786785Y-103274761D01*
X183691547Y-103322380D01*
X183310595Y-103322380D01*
X183310595Y-102322380D01*
X183643928Y-102322380D01*
X183739166Y-102370000D01*
X183786785Y-102417619D01*
X183834404Y-102512857D01*
X183834404Y-102608095D01*
X183786785Y-102703333D01*
X183739166Y-102750952D01*
X183643928Y-102798571D01*
X183310595Y-102798571D01*
X185501071Y-103322380D02*
X185501071Y-102322380D01*
X185501071Y-103274761D02*
X185405833Y-103322380D01*
X185215357Y-103322380D01*
X185120119Y-103274761D01*
X185072500Y-103227142D01*
X185024880Y-103131904D01*
X185024880Y-102846190D01*
X185072500Y-102750952D01*
X185120119Y-102703333D01*
X185215357Y-102655714D01*
X185405833Y-102655714D01*
X185501071Y-102703333D01*
X185977261Y-103322380D02*
X185977261Y-102655714D01*
X185977261Y-102322380D02*
X185929642Y-102370000D01*
X185977261Y-102417619D01*
X186024880Y-102370000D01*
X185977261Y-102322380D01*
X185977261Y-102417619D01*
X186453452Y-103322380D02*
X186453452Y-102655714D01*
X186453452Y-102750952D02*
X186501071Y-102703333D01*
X186596309Y-102655714D01*
X186739166Y-102655714D01*
X186834404Y-102703333D01*
X186882023Y-102798571D01*
X186882023Y-103322380D01*
X186882023Y-102798571D02*
X186929642Y-102703333D01*
X187024880Y-102655714D01*
X187167738Y-102655714D01*
X187262976Y-102703333D01*
X187310595Y-102798571D01*
X187310595Y-103322380D01*
X188167738Y-103274761D02*
X188072500Y-103322380D01*
X187882023Y-103322380D01*
X187786785Y-103274761D01*
X187739166Y-103179523D01*
X187739166Y-102798571D01*
X187786785Y-102703333D01*
X187882023Y-102655714D01*
X188072500Y-102655714D01*
X188167738Y-102703333D01*
X188215357Y-102798571D01*
X188215357Y-102893809D01*
X187739166Y-102989047D01*
X188643928Y-102655714D02*
X188643928Y-103322380D01*
X188643928Y-102750952D02*
X188691547Y-102703333D01*
X188786785Y-102655714D01*
X188929642Y-102655714D01*
X189024880Y-102703333D01*
X189072500Y-102798571D01*
X189072500Y-103322380D01*
X189501071Y-103274761D02*
X189596309Y-103322380D01*
X189786785Y-103322380D01*
X189882023Y-103274761D01*
X189929642Y-103179523D01*
X189929642Y-103131904D01*
X189882023Y-103036666D01*
X189786785Y-102989047D01*
X189643928Y-102989047D01*
X189548690Y-102941428D01*
X189501071Y-102846190D01*
X189501071Y-102798571D01*
X189548690Y-102703333D01*
X189643928Y-102655714D01*
X189786785Y-102655714D01*
X189882023Y-102703333D01*
X190358214Y-103322380D02*
X190358214Y-102655714D01*
X190358214Y-102322380D02*
X190310595Y-102370000D01*
X190358214Y-102417619D01*
X190405833Y-102370000D01*
X190358214Y-102322380D01*
X190358214Y-102417619D01*
X190977261Y-103322380D02*
X190882023Y-103274761D01*
X190834404Y-103227142D01*
X190786785Y-103131904D01*
X190786785Y-102846190D01*
X190834404Y-102750952D01*
X190882023Y-102703333D01*
X190977261Y-102655714D01*
X191120119Y-102655714D01*
X191215357Y-102703333D01*
X191262976Y-102750952D01*
X191310595Y-102846190D01*
X191310595Y-103131904D01*
X191262976Y-103227142D01*
X191215357Y-103274761D01*
X191120119Y-103322380D01*
X190977261Y-103322380D01*
X191739166Y-102655714D02*
X191739166Y-103322380D01*
X191739166Y-102750952D02*
X191786785Y-102703333D01*
X191882023Y-102655714D01*
X192024880Y-102655714D01*
X192120119Y-102703333D01*
X192167738Y-102798571D01*
X192167738Y-103322380D01*
X192596309Y-103274761D02*
X192691547Y-103322380D01*
X192882023Y-103322380D01*
X192977261Y-103274761D01*
X193024880Y-103179523D01*
X193024880Y-103131904D01*
X192977261Y-103036666D01*
X192882023Y-102989047D01*
X192739166Y-102989047D01*
X192643928Y-102941428D01*
X192596309Y-102846190D01*
X192596309Y-102798571D01*
X192643928Y-102703333D01*
X192739166Y-102655714D01*
X192882023Y-102655714D01*
X192977261Y-102703333D01*
X193453452Y-103227142D02*
X193501071Y-103274761D01*
X193453452Y-103322380D01*
X193405833Y-103274761D01*
X193453452Y-103227142D01*
X193453452Y-103322380D01*
X193453452Y-102703333D02*
X193501071Y-102750952D01*
X193453452Y-102798571D01*
X193405833Y-102750952D01*
X193453452Y-102703333D01*
X193453452Y-102798571D01*
X194739166Y-103322380D02*
X194929642Y-103322380D01*
X195024880Y-103274761D01*
X195072500Y-103227142D01*
X195167738Y-103084285D01*
X195215357Y-102893809D01*
X195215357Y-102512857D01*
X195167738Y-102417619D01*
X195120119Y-102370000D01*
X195024880Y-102322380D01*
X194834404Y-102322380D01*
X194739166Y-102370000D01*
X194691547Y-102417619D01*
X194643928Y-102512857D01*
X194643928Y-102750952D01*
X194691547Y-102846190D01*
X194739166Y-102893809D01*
X194834404Y-102941428D01*
X195024880Y-102941428D01*
X195120119Y-102893809D01*
X195167738Y-102846190D01*
X195215357Y-102750952D01*
X195548690Y-102322380D02*
X196215357Y-102322380D01*
X195786785Y-103322380D01*
X196643928Y-103274761D02*
X196643928Y-103322380D01*
X196596309Y-103417619D01*
X196548690Y-103465238D01*
X196977261Y-102322380D02*
X197643928Y-102322380D01*
X197215357Y-103322380D01*
X198072500Y-103322380D02*
X198262976Y-103322380D01*
X198358214Y-103274761D01*
X198405833Y-103227142D01*
X198501071Y-103084285D01*
X198548690Y-102893809D01*
X198548690Y-102512857D01*
X198501071Y-102417619D01*
X198453452Y-102370000D01*
X198358214Y-102322380D01*
X198167738Y-102322380D01*
X198072500Y-102370000D01*
X198024880Y-102417619D01*
X197977261Y-102512857D01*
X197977261Y-102750952D01*
X198024880Y-102846190D01*
X198072500Y-102893809D01*
X198167738Y-102941428D01*
X198358214Y-102941428D01*
X198453452Y-102893809D01*
X198501071Y-102846190D01*
X198548690Y-102750952D01*
X198977261Y-103322380D02*
X198977261Y-102655714D01*
X198977261Y-102750952D02*
X199024880Y-102703333D01*
X199120119Y-102655714D01*
X199262976Y-102655714D01*
X199358214Y-102703333D01*
X199405833Y-102798571D01*
X199405833Y-103322380D01*
X199405833Y-102798571D02*
X199453452Y-102703333D01*
X199548690Y-102655714D01*
X199691547Y-102655714D01*
X199786785Y-102703333D01*
X199834404Y-102798571D01*
X199834404Y-103322380D01*
X200310595Y-103322380D02*
X200310595Y-102655714D01*
X200310595Y-102750952D02*
X200358214Y-102703333D01*
X200453452Y-102655714D01*
X200596309Y-102655714D01*
X200691547Y-102703333D01*
X200739166Y-102798571D01*
X200739166Y-103322380D01*
X200739166Y-102798571D02*
X200786785Y-102703333D01*
X200882023Y-102655714D01*
X201024880Y-102655714D01*
X201120119Y-102703333D01*
X201167738Y-102798571D01*
X201167738Y-103322380D01*
X181262976Y-104924761D02*
X181405833Y-104972380D01*
X181643928Y-104972380D01*
X181739166Y-104924761D01*
X181786785Y-104877142D01*
X181834404Y-104781904D01*
X181834404Y-104686666D01*
X181786785Y-104591428D01*
X181739166Y-104543809D01*
X181643928Y-104496190D01*
X181453452Y-104448571D01*
X181358214Y-104400952D01*
X181310595Y-104353333D01*
X181262976Y-104258095D01*
X181262976Y-104162857D01*
X181310595Y-104067619D01*
X181358214Y-104020000D01*
X181453452Y-103972380D01*
X181691547Y-103972380D01*
X181834404Y-104020000D01*
X182691547Y-104924761D02*
X182596309Y-104972380D01*
X182405833Y-104972380D01*
X182310595Y-104924761D01*
X182262976Y-104877142D01*
X182215357Y-104781904D01*
X182215357Y-104496190D01*
X182262976Y-104400952D01*
X182310595Y-104353333D01*
X182405833Y-104305714D01*
X182596309Y-104305714D01*
X182691547Y-104353333D01*
X183548690Y-104972380D02*
X183548690Y-104448571D01*
X183501071Y-104353333D01*
X183405833Y-104305714D01*
X183215357Y-104305714D01*
X183120119Y-104353333D01*
X183548690Y-104924761D02*
X183453452Y-104972380D01*
X183215357Y-104972380D01*
X183120119Y-104924761D01*
X183072500Y-104829523D01*
X183072500Y-104734285D01*
X183120119Y-104639047D01*
X183215357Y-104591428D01*
X183453452Y-104591428D01*
X183548690Y-104543809D01*
X184167738Y-104972380D02*
X184072500Y-104924761D01*
X184024880Y-104829523D01*
X184024880Y-103972380D01*
X184929642Y-104924761D02*
X184834404Y-104972380D01*
X184643928Y-104972380D01*
X184548690Y-104924761D01*
X184501071Y-104829523D01*
X184501071Y-104448571D01*
X184548690Y-104353333D01*
X184643928Y-104305714D01*
X184834404Y-104305714D01*
X184929642Y-104353333D01*
X184977261Y-104448571D01*
X184977261Y-104543809D01*
X184501071Y-104639047D01*
X186024880Y-104305714D02*
X186405833Y-104305714D01*
X186167738Y-104972380D02*
X186167738Y-104115238D01*
X186215357Y-104020000D01*
X186310595Y-103972380D01*
X186405833Y-103972380D01*
X187167738Y-104972380D02*
X187167738Y-104448571D01*
X187120119Y-104353333D01*
X187024880Y-104305714D01*
X186834404Y-104305714D01*
X186739166Y-104353333D01*
X187167738Y-104924761D02*
X187072500Y-104972380D01*
X186834404Y-104972380D01*
X186739166Y-104924761D01*
X186691547Y-104829523D01*
X186691547Y-104734285D01*
X186739166Y-104639047D01*
X186834404Y-104591428D01*
X187072500Y-104591428D01*
X187167738Y-104543809D01*
X188072500Y-104924761D02*
X187977261Y-104972380D01*
X187786785Y-104972380D01*
X187691547Y-104924761D01*
X187643928Y-104877142D01*
X187596309Y-104781904D01*
X187596309Y-104496190D01*
X187643928Y-104400952D01*
X187691547Y-104353333D01*
X187786785Y-104305714D01*
X187977261Y-104305714D01*
X188072500Y-104353333D01*
X188358214Y-104305714D02*
X188739166Y-104305714D01*
X188501071Y-103972380D02*
X188501071Y-104829523D01*
X188548690Y-104924761D01*
X188643928Y-104972380D01*
X188739166Y-104972380D01*
X189215357Y-104972380D02*
X189120119Y-104924761D01*
X189072500Y-104877142D01*
X189024880Y-104781904D01*
X189024880Y-104496190D01*
X189072500Y-104400952D01*
X189120119Y-104353333D01*
X189215357Y-104305714D01*
X189358214Y-104305714D01*
X189453452Y-104353333D01*
X189501071Y-104400952D01*
X189548690Y-104496190D01*
X189548690Y-104781904D01*
X189501071Y-104877142D01*
X189453452Y-104924761D01*
X189358214Y-104972380D01*
X189215357Y-104972380D01*
X189977261Y-104972380D02*
X189977261Y-104305714D01*
X189977261Y-104496190D02*
X190024880Y-104400952D01*
X190072500Y-104353333D01*
X190167738Y-104305714D01*
X190262976Y-104305714D01*
X190596309Y-104877142D02*
X190643928Y-104924761D01*
X190596309Y-104972380D01*
X190548690Y-104924761D01*
X190596309Y-104877142D01*
X190596309Y-104972380D01*
X190596309Y-104353333D02*
X190643928Y-104400952D01*
X190596309Y-104448571D01*
X190548690Y-104400952D01*
X190596309Y-104353333D01*
X190596309Y-104448571D01*
X195072500Y-103972380D02*
X195167738Y-103972380D01*
X195262976Y-104020000D01*
X195310595Y-104067619D01*
X195358214Y-104162857D01*
X195405833Y-104353333D01*
X195405833Y-104591428D01*
X195358214Y-104781904D01*
X195310595Y-104877142D01*
X195262976Y-104924761D01*
X195167738Y-104972380D01*
X195072500Y-104972380D01*
X194977261Y-104924761D01*
X194929642Y-104877142D01*
X194882023Y-104781904D01*
X194834404Y-104591428D01*
X194834404Y-104353333D01*
X194882023Y-104162857D01*
X194929642Y-104067619D01*
X194977261Y-104020000D01*
X195072500Y-103972380D01*
X195834404Y-104877142D02*
X195882023Y-104924761D01*
X195834404Y-104972380D01*
X195786785Y-104924761D01*
X195834404Y-104877142D01*
X195834404Y-104972380D01*
X196215357Y-103972380D02*
X196882023Y-103972380D01*
X196453452Y-104972380D01*
X197167738Y-103972380D02*
X197786785Y-103972380D01*
X197453452Y-104353333D01*
X197596309Y-104353333D01*
X197691547Y-104400952D01*
X197739166Y-104448571D01*
X197786785Y-104543809D01*
X197786785Y-104781904D01*
X197739166Y-104877142D01*
X197691547Y-104924761D01*
X197596309Y-104972380D01*
X197310595Y-104972380D01*
X197215357Y-104924761D01*
X197167738Y-104877142D01*
X114950000Y-78655000D02*
X114950000Y-84055000D01*
X100950000Y-78655000D02*
X100950000Y-84055000D01*
X95600000Y-78655000D02*
X120300000Y-78655000D01*
X120300000Y-78655000D02*
X120300000Y-61655000D01*
X120300000Y-61655000D02*
X95600000Y-61655000D01*
X95600000Y-61655000D02*
X95600000Y-78655000D01*
M02*
