M48
; DRILL file {KiCad (5.1.5)-3} date 06/11/2020 22:16:09
; FORMAT={2:4/ absolute / inch / suppress leading zeros}
; #@! TF.CreationDate,2020-11-06T22:16:09+01:00
; #@! TF.GenerationSoftware,Kicad,Pcbnew,(5.1.5)-3
FMAT,2
INCH,TZ
T1C0.0157
T2C0.0394
T3C0.0400
T4C0.0945
T5C0.1200
%
G90
G05
T1
X35000Y-25700
X35000Y-27300
X35250Y-27000
X35500Y-26750
X36750Y-28000
X37000Y-27000
T2
X29250Y-24750
X29250Y-25750
X29250Y-26750
X29250Y-27750
T3
X41000Y-23250
X42000Y-23250
X43000Y-23250
X44000Y-23250
T4
X38445Y-32108
X46555Y-32108
T5
X65750Y-58750
X29750Y-58750
X65750Y-22750
X29750Y-22750
T0
M30
