G04 #@! TF.GenerationSoftware,KiCad,Pcbnew,(5.1.5)-3*
G04 #@! TF.CreationDate,2020-11-06T22:16:06+01:00*
G04 #@! TF.ProjectId,C64 Pi1541-II FaceplateB,43363420-5069-4313-9534-312d49492046,rev?*
G04 #@! TF.SameCoordinates,Original*
G04 #@! TF.FileFunction,Copper,L2,Bot*
G04 #@! TF.FilePolarity,Positive*
%FSLAX46Y46*%
G04 Gerber Fmt 4.6, Leading zero omitted, Abs format (unit mm)*
G04 Created by KiCad (PCBNEW (5.1.5)-3) date 2020-11-06 22:16:06*
%MOMM*%
%LPD*%
G04 APERTURE LIST*
%ADD10C,2.500000*%
%ADD11R,1.727200X1.727200*%
%ADD12C,1.727200*%
%ADD13C,3.500000*%
%ADD14O,1.700000X1.700000*%
%ADD15R,1.700000X1.700000*%
%ADD16O,1.000000X1.000000*%
%ADD17R,1.000000X1.000000*%
%ADD18C,0.600000*%
%ADD19C,0.381000*%
%ADD20C,0.250000*%
G04 APERTURE END LIST*
D10*
X118250000Y-81555000D03*
X97650000Y-81555000D03*
D11*
X104140000Y-59055000D03*
D12*
X106680000Y-59055000D03*
X109220000Y-59055000D03*
X111760000Y-59055000D03*
D13*
X75565000Y-149225000D03*
X167005000Y-149225000D03*
X167005000Y-57785000D03*
X75565000Y-57785000D03*
D14*
X74295000Y-70485000D03*
X74295000Y-67945000D03*
X74295000Y-65405000D03*
D15*
X74295000Y-62865000D03*
D16*
X90805000Y-66040000D03*
X90805000Y-64770000D03*
D17*
X90805000Y-63500000D03*
X90805000Y-69850000D03*
D16*
X90805000Y-71120000D03*
X90805000Y-72390000D03*
D18*
X88900000Y-65278000D03*
X88900000Y-69342000D03*
X90170000Y-67945000D03*
X93980000Y-68580000D03*
X89535000Y-68580000D03*
X93345000Y-71120000D03*
D19*
X90170000Y-62865000D02*
X90805000Y-63500000D01*
X74295000Y-62865000D02*
X88773000Y-62865000D01*
X88773000Y-62865000D02*
X90170000Y-62865000D01*
X89154000Y-72390000D02*
X90805000Y-72390000D01*
X88900000Y-69342000D02*
X88900000Y-72136000D01*
X88900000Y-72136000D02*
X89154000Y-72390000D01*
X88900000Y-62992000D02*
X88900000Y-65278000D01*
X88773000Y-62865000D02*
X88900000Y-62992000D01*
X90805000Y-66040000D02*
X91304999Y-66539999D01*
X91304999Y-69350001D02*
X90805000Y-69850000D01*
X91304999Y-66539999D02*
X91304999Y-69350001D01*
X74930000Y-66040000D02*
X74295000Y-65405000D01*
X90805000Y-66040000D02*
X74930000Y-66040000D01*
X106680000Y-60325000D02*
X106680000Y-59055000D01*
X106045000Y-60960000D02*
X106680000Y-60325000D01*
X93980000Y-60960000D02*
X106045000Y-60960000D01*
X93345000Y-61595000D02*
X93980000Y-60960000D01*
X92075000Y-71120000D02*
X92710000Y-70485000D01*
X90805000Y-71120000D02*
X92075000Y-71120000D01*
X92710000Y-66040000D02*
X93345000Y-65405000D01*
X92710000Y-70485000D02*
X92710000Y-66040000D01*
X93345000Y-65405000D02*
X93345000Y-61595000D01*
D20*
X83820000Y-67945000D02*
X74295000Y-67945000D01*
X90170000Y-67945000D02*
X83820000Y-67945000D01*
X93980000Y-83312000D02*
X93980000Y-68580000D01*
X121285000Y-83185000D02*
X120650000Y-83820000D01*
X120650000Y-83820000D02*
X94488000Y-83820000D01*
X109220000Y-60325000D02*
X109855000Y-60960000D01*
X109220000Y-59055000D02*
X109220000Y-60325000D01*
X109855000Y-60960000D02*
X120650000Y-60960000D01*
X120650000Y-60960000D02*
X121285000Y-61595000D01*
X94488000Y-83820000D02*
X93980000Y-83312000D01*
X121285000Y-61595000D02*
X121285000Y-83185000D01*
X89535000Y-68580000D02*
X85725000Y-68580000D01*
X76200000Y-68580000D02*
X74295000Y-70485000D01*
X85725000Y-68580000D02*
X76200000Y-68580000D01*
X93345000Y-83693000D02*
X93345000Y-71120000D01*
X121285000Y-59055000D02*
X121920000Y-59690000D01*
X111760000Y-59055000D02*
X121285000Y-59055000D01*
X93980000Y-84328000D02*
X93345000Y-83693000D01*
X121920000Y-83820000D02*
X121412000Y-84328000D01*
X121920000Y-59690000D02*
X121920000Y-83820000D01*
X121412000Y-84328000D02*
X93980000Y-84328000D01*
D19*
X92710000Y-64135000D02*
X92710000Y-60325000D01*
X93980000Y-59055000D02*
X104140000Y-59055000D01*
X92710000Y-60325000D02*
X93980000Y-59055000D01*
X90805000Y-64770000D02*
X92075000Y-64770000D01*
X92075000Y-64770000D02*
X92710000Y-64135000D01*
M02*
